<svg width="159" height="130" viewBox="0 0 159 130" fill="none" xmlns="http://www.w3.org/2000/svg">
<g clip-path="url(#clip0)">
<path d="M79.6033 119.492C104.237 119.492 124.207 115.761 124.207 111.158C124.207 106.555 104.237 102.824 79.6033 102.824C54.9696 102.824 35 106.555 35 111.158C35 115.761 54.9696 119.492 79.6033 119.492Z" fill="#F5F5F7" fill-opacity="0.8"/>
<path fill-rule="evenodd" clip-rule="evenodd" d="M115.285 86.6737L99.5452 67.3019C98.79 66.3901 97.686 65.8381 96.5235 65.8381H62.6814C61.5196 65.8381 60.4156 66.3901 59.6604 67.3019L43.9209 86.6737V96.7941H115.286V86.6737H115.285Z" fill="#AEB8C2"/>
<path fill-rule="evenodd" clip-rule="evenodd" d="M57.2566 40.8355H101.949C102.647 40.8355 103.317 41.1128 103.81 41.6063C104.304 42.0998 104.581 42.7692 104.581 43.4671V104.878C104.581 105.576 104.304 106.245 103.81 106.738C103.317 107.232 102.647 107.509 101.949 107.509H57.2566C56.5586 107.509 55.8893 107.232 55.3958 106.738C54.9023 106.245 54.625 105.576 54.625 104.878V43.4671C54.625 42.7692 54.9023 42.0998 55.3958 41.6063C55.8893 41.1128 56.5586 40.8355 57.2566 40.8355V40.8355Z" fill="#F5F5F7"/>
<path fill-rule="evenodd" clip-rule="evenodd" d="M63.0777 47.3835H96.1283C96.4773 47.3835 96.812 47.5222 97.0587 47.7689C97.3055 48.0157 97.4441 48.3504 97.4441 48.6993V65.1184C97.4441 65.4674 97.3055 65.8021 97.0587 66.0488C96.812 66.2956 96.4773 66.4342 96.1283 66.4342H63.0777C62.7287 66.4342 62.394 66.2956 62.1472 66.0488C61.9005 65.8021 61.7619 65.4674 61.7619 65.1184V48.6993C61.7619 48.3504 61.9005 48.0157 62.1472 47.7689C62.394 47.5222 62.7287 47.3835 63.0777 47.3835ZM63.25 73.577H95.9559C96.3506 73.577 96.7291 73.7338 97.0082 74.0128C97.2873 74.2919 97.4441 74.6704 97.4441 75.0651C97.4441 75.4598 97.2873 75.8383 97.0082 76.1174C96.7291 76.3965 96.3506 76.5533 95.9559 76.5533H63.25C62.8553 76.5533 62.4768 76.3965 62.1977 76.1174C61.9186 75.8383 61.7619 75.4598 61.7619 75.0651C61.7619 74.6704 61.9186 74.2919 62.1977 74.0128C62.4768 73.7338 62.8553 73.577 63.25 73.577ZM63.25 81.3158H95.9559C96.3507 81.3158 96.7293 81.4726 97.0085 81.7518C97.2876 82.0309 97.4444 82.4095 97.4444 82.8043C97.4444 83.199 97.2876 83.5776 97.0085 83.8568C96.7293 84.1359 96.3507 84.2928 95.9559 84.2928H63.25C62.8552 84.2928 62.4766 84.1359 62.1975 83.8568C61.9184 83.5776 61.7615 83.199 61.7615 82.8043C61.7615 82.4095 61.9184 82.0309 62.1975 81.7518C62.4766 81.4726 62.8552 81.3158 63.25 81.3158ZM115.14 109.936C114.63 111.956 112.84 113.462 110.709 113.462H48.4967C46.3665 113.462 44.5757 111.955 44.0665 109.936C43.9693 109.551 43.9203 109.155 43.9204 108.758V86.6743H61.2349C63.1474 86.6743 64.6888 88.2849 64.6888 90.2401V90.2664C64.6888 92.221 66.248 93.7993 68.1605 93.7993H91.0454C92.9579 93.7993 94.5171 92.2066 94.5171 90.2513V90.2434C94.5171 88.2881 96.0586 86.6737 97.9711 86.6737H115.286V108.759C115.286 109.164 115.235 109.559 115.14 109.936Z" fill="#DCE0E6"/>
<path fill-rule="evenodd" clip-rule="evenodd" d="M117.317 41.9026L112.823 43.6461C112.708 43.6909 112.582 43.7023 112.46 43.6789C112.339 43.6555 112.226 43.5982 112.136 43.5137C112.045 43.4292 111.98 43.3208 111.949 43.2011C111.917 43.0813 111.92 42.9551 111.957 42.8368L113.231 38.7533C111.528 36.8164 110.528 34.4546 110.528 31.9059C110.528 25.3303 117.184 20 125.396 20C133.606 20 140.263 25.3303 140.263 31.9059C140.263 38.4816 133.607 43.8118 125.396 43.8118C122.417 43.8118 119.643 43.1105 117.317 41.9026Z" fill="#DCE0E6"/>
<path d="M131.253 34.0559C132.288 34.0559 133.127 33.2268 133.127 32.204C133.127 31.1811 132.288 30.352 131.253 30.352C130.218 30.352 129.378 31.1811 129.378 32.204C129.378 33.2268 130.218 34.0559 131.253 34.0559Z" fill="white"/>
<path fill-rule="evenodd" clip-rule="evenodd" d="M121.413 33.8243H117.665L119.571 30.5836L121.413 33.8243ZM123.756 30.5836H127.036V33.8243H123.756V30.5836Z" fill="white"/>
</g>
<defs>
<clipPath id="clip0">
<rect width="159" height="170" fill="white"/>
</clipPath>
</defs>
</svg>
