<svg width="24" height="24" viewBox="0 0 24 24" fill="none" xmlns="http://www.w3.org/2000/svg">
<path d="M17.63 9.31002V6.64002L14.07 3.08002H3.38V21H10" stroke="#313131" stroke-miterlimit="10" stroke-linecap="round"/>
<path d="M16.16 20.79C18.6563 20.79 20.68 18.7663 20.68 16.27C20.68 13.7737 18.6563 11.75 16.16 11.75C13.6637 11.75 11.64 13.7737 11.64 16.27C11.64 18.7663 13.6637 20.79 16.16 20.79Z" stroke="#313131" stroke-miterlimit="10" stroke-linecap="round"/>
<path d="M16.16 13.73V18.63" stroke="#313131" stroke-miterlimit="10" stroke-linecap="round"/>
<path d="M14 16.56L15.68 18.49C15.7398 18.5532 15.8119 18.6036 15.8919 18.6381C15.9718 18.6725 16.0579 18.6903 16.145 18.6903C16.2321 18.6903 16.3182 18.6725 16.3981 18.6381C16.4781 18.6036 16.5502 18.5532 16.61 18.49L18.29 16.56" stroke="#313131" stroke-miterlimit="10" stroke-linecap="round"/>
<path d="M6.56152 8.13672L7.09473 7.15625H7.76855L6.94043 8.56641L7.79004 10H7.1084L6.56152 9.00391L6.01465 10H5.33301L6.18262 8.56641L5.35449 7.15625H6.02832L6.56152 8.13672ZM8.67285 9.5293H9.91699V10H8.08691V7.15625H8.67285V9.5293ZM11.2725 8.13672L11.8057 7.15625H12.4795L11.6514 8.56641L12.501 10H11.8193L11.2725 9.00391L10.7256 10H10.0439L10.8936 8.56641L10.0654 7.15625H10.7393L11.2725 8.13672ZM14.2725 9.25391C14.2725 9.14323 14.2334 9.05859 14.1553 9C14.0771 8.9401 13.9365 8.8776 13.7334 8.8125C13.5303 8.74609 13.3695 8.68099 13.251 8.61719C12.9281 8.44271 12.7666 8.20768 12.7666 7.91211C12.7666 7.75846 12.8096 7.62174 12.8955 7.50195C12.9827 7.38086 13.1071 7.28646 13.2686 7.21875C13.4313 7.15104 13.6136 7.11719 13.8154 7.11719C14.0186 7.11719 14.1995 7.1543 14.3584 7.22852C14.5173 7.30143 14.6403 7.40495 14.7275 7.53906C14.8161 7.67318 14.8604 7.82552 14.8604 7.99609H14.2744C14.2744 7.86589 14.2334 7.76497 14.1514 7.69336C14.0693 7.62044 13.9541 7.58398 13.8057 7.58398C13.6624 7.58398 13.5511 7.61458 13.4717 7.67578C13.3923 7.73568 13.3525 7.8151 13.3525 7.91406C13.3525 8.00651 13.3988 8.08398 13.4912 8.14648C13.585 8.20898 13.7223 8.26758 13.9033 8.32227C14.2367 8.42253 14.4795 8.54688 14.6318 8.69531C14.7842 8.84375 14.8604 9.02865 14.8604 9.25C14.8604 9.49609 14.7673 9.68945 14.5811 9.83008C14.3949 9.9694 14.1442 10.0391 13.8291 10.0391C13.6104 10.0391 13.4111 9.99935 13.2314 9.91992C13.0518 9.83919 12.9144 9.72917 12.8193 9.58984C12.7256 9.45052 12.6787 9.28906 12.6787 9.10547H13.2666C13.2666 9.41927 13.4541 9.57617 13.8291 9.57617C13.9684 9.57617 14.0771 9.54818 14.1553 9.49219C14.2334 9.4349 14.2725 9.35547 14.2725 9.25391Z" fill="#313131"/>
</svg>
