<svg xmlns="http://www.w3.org/2000/svg" xmlns:xlink="http://www.w3.org/1999/xlink" viewBox="0 0 216 121"><defs><style>.cls-1{fill:url(#_ÂÁ_Ï_ÌÌ_È_ËÂÌÚ_275);}.cls-2{fill:url(#_ÂÁ_Ï_ÌÌ_È_ËÂÌÚ_569);}.cls-3{fill:url(#_ÂÁ_Ï_ÌÌ_È_ËÂÌÚ_575);}.cls-4,.cls-75,.cls-76,.cls-77,.cls-78{fill:none;}.cls-5{isolation:isolate;}.cls-6{clip-path:url(#clip-path);}.cls-7{fill:url(#linear-gradient);}.cls-8{mix-blend-mode:screen;fill:url(#_ÂÁ_Ï_ÌÌ_È_ËÂÌÚ_397);}.cls-9{mask:url(#mask);}.cls-10{fill:#fff2a8;}.cls-11{fill:#ffffd3;}.cls-12{mask:url(#mask-2);}.cls-13,.cls-70{fill:#fff;}.cls-14{mask:url(#mask-3);}.cls-15{fill:#5f5f73;}.cls-16{fill:#bcb030;}.cls-17{fill:#a6972d;}.cls-18{fill:#ffe1bd;}.cls-19{fill:#bb9066;}.cls-20{fill:#90872d;}.cls-21{fill:#e3e1c5;}.cls-22{fill:#d3c6a0;}.cls-23{fill:#4c4d62;}.cls-24{fill:#472514;}.cls-25{fill:#37383b;}.cls-26{fill:#1f2125;}.cls-27{fill:#56545b;}.cls-28{fill:#22201f;}.cls-28,.cls-29,.cls-31,.cls-41,.cls-54{opacity:0.5;}.cls-29,.cls-30{fill:#6e6a73;}.cls-31,.cls-32{fill:#9db3af;}.cls-33{fill:#fbad2b;}.cls-34{fill:#0d0000;}.cls-35{fill:#5fcae9;}.cls-36{fill:#00000d;}.cls-37{fill:#44acd3;}.cls-38{fill:#d36827;}.cls-39{fill:#a0b2b0;}.cls-40,.cls-54{fill:#f0ce33;}.cls-41,.cls-44{fill:#677d80;}.cls-42{fill:#516668;}.cls-43{fill:#c3dcd7;}.cls-45{fill:#faa62b;}.cls-46{fill:#227c9a;}.cls-47{fill:#df8f27;}.cls-48{fill:#bc4926;opacity:0.3;}.cls-49{fill:#3c3a41;}.cls-50{fill:#2d2932;}.cls-51{fill:#1d1d23;}.cls-52{fill:#2b2b31;}.cls-53{fill:#02020d;}.cls-55{fill:#e07f26;}.cls-56{fill:#c16927;}.cls-57{fill:#703415;}.cls-58{fill:#a9c0cb;}.cls-59{fill:#89a4af;}.cls-60{fill:#6c8280;}.cls-61{fill:#262b38;}.cls-62{fill:#cadad7;}.cls-63{fill:#4b6261;}.cls-64{fill:#8d481e;}.cls-65{fill:#655f69;}.cls-66{fill:#dc262b;}.cls-67{fill:#a41d26;}.cls-68{fill:#710f18;}.cls-69{fill:#ef484f;}.cls-70{opacity:0.7;}.cls-71{fill:#f04e29;}.cls-72{fill:#bd3026;}.cls-73{fill:#8e191b;}.cls-74{fill:#f15e46;}.cls-75,.cls-76,.cls-77,.cls-78{stroke:#00000d;stroke-linejoin:round;}.cls-75{stroke-width:8.08px;}.cls-76{stroke-width:8.69px;}.cls-77{stroke-width:9.73px;}.cls-78{stroke-width:10.3px;}</style><radialGradient id="_ÂÁ_Ï_ÌÌ_È_ËÂÌÚ_275" cx="209.03" cy="8.09" r="39.03" gradientTransform="translate(19.01 -79.37) rotate(22.5)" gradientUnits="userSpaceOnUse"><stop offset="0" stop-color="#fff"/><stop offset="0.02" stop-color="#fafafa"/><stop offset="0.39" stop-color="#909090"/><stop offset="0.69" stop-color="#434343"/><stop offset="0.9" stop-color="#131313"/><stop offset="1"/></radialGradient><linearGradient id="_ÂÁ_Ï_ÌÌ_È_ËÂÌÚ_569" x1="191.31" y1="60.82" x2="191.31" y2="42.6" gradientUnits="userSpaceOnUse"><stop offset="0"/><stop offset="0.02" stop-color="#121212"/><stop offset="0.09" stop-color="#444"/><stop offset="0.17" stop-color="#707070"/><stop offset="0.25" stop-color="#979797"/><stop offset="0.33" stop-color="#b7b7b7"/><stop offset="0.43" stop-color="#d1d1d1"/><stop offset="0.53" stop-color="#e6e6e6"/><stop offset="0.64" stop-color="#f4f4f4"/><stop offset="0.77" stop-color="#fcfcfc"/><stop offset="1" stop-color="#fff"/></linearGradient><linearGradient id="_ÂÁ_Ï_ÌÌ_È_ËÂÌÚ_575" x1="-212.59" y1="94.82" x2="-212.59" y2="73.3" gradientTransform="matrix(-1, 0, 0, 1, -120.99, 0)" gradientUnits="userSpaceOnUse"><stop offset="0"/><stop offset="1" stop-color="#fff"/></linearGradient><clipPath id="clip-path"><rect class="cls-4" x="-0.03" y="-0.18" width="216" height="121"/></clipPath><linearGradient id="linear-gradient" x1="107.97" y1="-24.08" x2="107.97" y2="118.03" gradientUnits="userSpaceOnUse"><stop offset="0" stop-color="#0667e0"/><stop offset="1" stop-color="#b8fefe"/></linearGradient><radialGradient id="_ÂÁ_Ï_ÌÌ_È_ËÂÌÚ_397" cx="198" cy="-5.5" r="41.81" gradientTransform="translate(174.36 -173.49) rotate(80.78) scale(0.93)" gradientUnits="userSpaceOnUse"><stop offset="0.45"/><stop offset="0.6" stop-color="#4d4d4d"/><stop offset="0.63"/><stop offset="0.78" stop-color="#333"/><stop offset="0.8"/><stop offset="0.83" stop-color="#090909"/><stop offset="0.89" stop-color="#161616"/><stop offset="0.95" stop-color="#1a1a1a"/><stop offset="1"/></radialGradient><mask id="mask" x="170" y="-30.93" width="78.05" height="78.05" maskUnits="userSpaceOnUse"><circle class="cls-1" cx="209.03" cy="8.09" r="39.03" transform="translate(12.81 80.61) rotate(-22.5)"/></mask><mask id="mask-2" x="165.91" y="42.6" width="50.8" height="18.22" maskUnits="userSpaceOnUse"><path class="cls-2" d="M212.92,55.89c-.26-1-2.07-2.2-3.82-2.47,4.81-9.48-18-17.25-19.2-2.94-2.67-4.07-11-1.21-11.81,2.88-2-.7-5.86-1.2-8.1,2.45-6,0-4.82,5-.05,5h43.65C218.07,60.82,217.61,56.84,212.92,55.89Z"/></mask><mask id="mask-3" x="67" y="73.3" width="49.2" height="21.52" maskUnits="userSpaceOnUse"><path class="cls-3" d="M79.77,79.16c4.68-11.25,29.52-4.6,28.46,5.61,9,3.29,8.94,10,6.76,10H70C63.75,94.82,67.34,78.85,79.77,79.16Z"/></mask></defs><g class="cls-5"><g id="Layer_1" data-name="Layer 1"><g class="cls-6"><rect class="cls-7" x="-0.03" y="-0.18" width="216" height="121"/><g id="Sun"><circle id="Glow" class="cls-8" cx="209.03" cy="8.09" r="39.03" transform="matrix(0.16, -0.99, 0.99, 0.16, 167.55, 213.12)"/><g class="cls-9"><circle id="Tone" class="cls-10" cx="209.03" cy="8.09" r="39.03" transform="translate(12.81 80.61) rotate(-22.5)"/></g><circle id="Shape" class="cls-11" cx="209.03" cy="8.09" r="17.56"/></g><g class="cls-12"><path id="Cloud" class="cls-13" d="M212.92,55.89c-.26-1-2.07-2.2-3.82-2.47,4.81-9.48-18-17.25-19.2-2.94-2.67-4.07-11-1.21-11.81,2.88-2-.7-5.86-1.2-8.1,2.45-6,0-4.82,5-.05,5h43.65C218.07,60.82,217.61,56.84,212.92,55.89Z"/></g><g class="cls-14"><path id="Cloud-2" data-name="Cloud" class="cls-13" d="M79.77,79.16c4.68-11.25,29.52-4.6,28.46,5.61,9,3.29,8.94,10,6.76,10H70C63.75,94.82,67.34,78.85,79.77,79.16Z"/></g><path class="cls-15" d="M216,87.16C155.32,70.57,77.73,94.25,52.81,101.79v19.43H216Z"/><path class="cls-16" d="M51.81,101.79-1,120.82l52.84.4h54.78L84.44,93.13C70.12,96.45,58.63,99.73,51.81,101.79Z"/><path class="cls-17" d="M121.22,109.33c-19.84,2.71-36.44,5.08-45.41,6.37v5.52h54.78Z"/><path class="cls-18" d="M98,89.82c-9.06,1.86-17.08,4.09-24.32,5.93a289.18,289.18,0,0,1,20.1,25.47h64.79A376.13,376.13,0,0,0,98,89.82Z"/><path class="cls-19" d="M101.44,100.07c6.44-1.57,19.8-4.78,28.71-6.67l-.65-.28c-9,1.93-22.12,5.09-28.36,6.6Z"/><path class="cls-19" d="M109.6,110.19c8.9-2.2,26.17-6.43,37.61-8.9l-.79-.38c-11.54,2.51-28.53,6.67-37.18,8.81Z"/><path class="cls-19" d="M163.22,109.67c-14.74,3.19-39.72,9.45-45.86,11,.14.19.27.38.39.56h.74c7.55-1.9,31.85-8,45.81-11Z"/><path class="cls-19" d="M176.78,121.22c1.52-.34,3-.65,4.3-.93l-.7-.45c-1.91.41-4,.87-6.27,1.38Z"/><polygon class="cls-20" points="82.49 106.89 82.14 105.33 82.55 106.31 82.68 105.06 82.85 106.11 82.96 105.55 83.08 106.11 83.34 104.68 83.67 105.97 83.75 105.4 83.93 105.9 84.29 104.48 84.58 105.51 84.66 105.14 84.82 105.48 85.05 104.08 85.09 105.32 85.26 104.87 85.35 105.49 85.51 105.21 85.63 106.22 85.83 105.36 85.76 106.83 82.49 106.89"/><path class="cls-21" d="M89.76,106.18a2.59,2.59,0,0,0-3.66-.27s-1.28-.44-1.6-.18l-.76.7s-1.37.27-1.49.52h8S90,105.81,89.76,106.18Z"/><path class="cls-22" d="M89.76,106.18a2.59,2.59,0,0,0-3.66-.27s-1.21-.41-1.57-.2a5.13,5.13,0,0,1,1.49.82s.67-.49,1-.42.68.54.68.54l2.51.11C90.11,106.46,90,105.9,89.76,106.18Z"/><polygon class="cls-20" points="88.33 107.01 88.02 105.73 88.43 106.71 88.56 105.45 88.73 106.5 88.84 105.95 88.96 106.5 89.22 105.07 89.54 106.37 89.63 105.8 89.81 106.3 90.17 104.88 90.46 105.91 90.54 105.53 90.7 105.88 90.93 104.48 90.97 105.72 91.14 105.26 91.23 105.89 91.39 105.61 91.5 106.62 91.71 105.76 91.6 106.95 88.33 107.01"/><path class="cls-23" d="M207.24,102.06c-1.07-2.15-4.1-2.72-6.22-3.09a59.86,59.86,0,0,0-8.35-.77c-4.16-.13-9.67.49-12.9-2.72-1-1-.72-3.1-1.29-4.32a7,7,0,0,0-4.22-3.53,20.5,20.5,0,0,0-5.21-1c-2.82-.29-5.66-.45-8.49-.6-5.22-.28-10.46-.37-15.7-.31a24.94,24.94,0,0,0-10.28.24l-.1,0-2,.44a28.21,28.21,0,0,0-8.81,3.48c-1.93,1.22-4.63,3.89-2.44,6.19a7.44,7.44,0,0,0,4.28,1.81c2.63.45,5.31.56,8,.8a22.59,22.59,0,0,1,7.43,1.7,40.64,40.64,0,0,1,5.6,3.5,23.29,23.29,0,0,0,5.27,2.72c2.47.87,5.22,1.14,7.76,1.8a74.89,74.89,0,0,0,15.44,2.7c5.16.24,10.35.09,15.52.06,4.26,0,8.57-.4,12.43-2.34C205.15,107.73,208.7,105,207.24,102.06Z"/><polygon class="cls-24" points="119.72 90.96 120.67 90.48 125.66 88.14 124.42 83.84 118.02 85.08 119.72 90.96"/><path class="cls-25" d="M125.37,85.61c1.4-.06,2.67,2.8,2.84,6.4s-.84,6.57-2.24,6.63l-2.87.14-.6-13Z"/><path class="cls-26" d="M125.37,85.61l-1.3.06a12,12,0,0,1,2.29,7.3s-.18.67,1.35,1.37a7.75,7.75,0,0,1-2.25,4.33l.51,0c1.4-.06,2.41-3,2.24-6.63S126.77,85.55,125.37,85.61Z"/><path class="cls-27" d="M125.34,92.14c.16,3.6-.84,6.57-2.24,6.64s-2.68-2.81-2.84-6.4.84-6.57,2.24-6.64S125.17,88.54,125.34,92.14Z"/><path class="cls-28" d="M123.41,92.23c.12,2.55-.41,4.65-1.17,4.68s-1.48-2-1.6-4.55.41-4.65,1.17-4.68S123.29,89.68,123.41,92.23Z"/><path class="cls-28" d="M122.19,87.83c-.64.38-1.06,2.31-1,4.61.09,2.12.6,3.89,1.21,4.41.65-.38,1.07-2.32,1-4.62C123.31,90.11,122.8,88.34,122.19,87.83Z"/><path class="cls-29" d="M122.5,85.74a1.16,1.16,0,0,0-.6.22c1.2.52,2.21,3.13,2.35,6.3s-.56,5.67-1.64,6.42a1.19,1.19,0,0,0,.49.1c1.4-.07,2.4-3,2.24-6.64S123.9,85.68,122.5,85.74Z"/><path class="cls-30" d="M122.86,85.79c1,1,1.88,3.44,2,6.37s-.46,5.47-1.41,6.53c1.21-.5,2-3.26,1.88-6.55S124.11,86.19,122.86,85.79Z"/><path class="cls-31" d="M122.73,88.67h-.1c-.59,0-1,1.66-.91,3.65s.65,3.58,1.24,3.55l.1,0a10.76,10.76,0,0,0,.35-3.61A11.12,11.12,0,0,0,122.73,88.67Z"/><path class="cls-32" d="M122.32,88.83a4.91,4.91,0,0,0-.61,2.72c.35.47.79,1,1,1S122.63,90,122.32,88.83Z"/><path class="cls-32" d="M121.72,92.35c.1,2,.65,3.54,1.24,3.51l.1,0a7.48,7.48,0,0,0,.32-1.79A2.8,2.8,0,0,0,121.72,92.35Z"/><path class="cls-33" d="M125.4,91.29,136,91.9l.64,2.74,12.41.66,2.05-45s-28.61,8.85-31.84,10.25a4.74,4.74,0,0,0-2.94,4.6l.53,11.35.73,14.44,2.12.06s-.14-5.62,2.25-6C125.08,84.47,125.4,91.29,125.4,91.29Z"/><path class="cls-34" d="M117.05,80a1,1,0,0,0,0,1.08l31.8,0-.1-2.2Z"/><polygon class="cls-33" points="149.07 95.3 149.26 91.19 147.5 60.12 139.77 62.16 141.28 94.89 149.07 95.3"/><path class="cls-35" d="M148,92.58a.78.78,0,0,1-.78-.74l-.59-13a.78.78,0,0,1,.74-.82h.3a.78.78,0,0,1,.78.74l.59,13a.79.79,0,0,1-.74.82Z"/><path class="cls-36" d="M147.67,78.13a.69.69,0,0,1,.69.66l.6,13a.7.7,0,0,1-.66.72H148a.69.69,0,0,1-.69-.66l-.6-13a.7.7,0,0,1,.66-.72h.3m0-.18h0l-.26,0a.86.86,0,0,0-.83.9l.6,13a.87.87,0,0,0,.86.83h0l.26,0a.83.83,0,0,0,.6-.28.84.84,0,0,0,.23-.62l-.6-13a.87.87,0,0,0-.86-.83Z"/><path class="cls-37" d="M147.64,78.13h-.27a.68.68,0,0,0-.62.46,1,1,0,0,1,.25-.06h.26a.69.69,0,0,1,.73.66l.6,13a1.09,1.09,0,0,1,0,.26.7.7,0,0,0,.41-.66l-.6-13A.69.69,0,0,0,147.64,78.13Z"/><path class="cls-13" d="M148.36,87.2c-.17.08-.89-1.77-1.39-2.66l0,.74,1.83,3.86-.14-3.07a58.65,58.65,0,0,1-1.91-5.56l.05,1.07C147.51,83.7,148.54,87.1,148.36,87.2Z"/><path class="cls-35" d="M144.66,92.56a.78.78,0,0,1-.78-.74l-.59-13A.77.77,0,0,1,144,78l.3,0a.78.78,0,0,1,.78.75l.6,13a.79.79,0,0,1-.75.81Z"/><path class="cls-36" d="M144.33,78.11a.69.69,0,0,1,.69.66l.6,13a.69.69,0,0,1-.66.72l-.26,0h0a.69.69,0,0,1-.69-.66l-.6-13a.7.7,0,0,1,.66-.73h.3m0-.17H144a.87.87,0,0,0-.83.9l.6,13a.86.86,0,0,0,.86.83H145a.87.87,0,0,0,.82-.91l-.6-13a.86.86,0,0,0-.86-.82Z"/><path class="cls-37" d="M144.3,78.11H144a.7.7,0,0,0-.62.47.54.54,0,0,1,.25-.06l.27,0a.7.7,0,0,1,.72.66l.6,13a.71.71,0,0,1,0,.26.7.7,0,0,0,.41-.66l-.6-13A.69.69,0,0,0,144.3,78.11Z"/><path class="cls-13" d="M145,87.18c-.17.09-.88-1.77-1.38-2.65l0,.73,1.83,3.87-.14-3.07c-.59-1.33-1.39-3.84-1.91-5.57l.05,1.08C144.17,83.68,145.2,87.08,145,87.18Z"/><path class="cls-35" d="M144,77.51a.77.77,0,0,1-.78-.74l-.6-13a.79.79,0,0,1,.74-.82h.3a.78.78,0,0,1,.78.74l.6,13a.79.79,0,0,1-.74.82Z"/><path class="cls-36" d="M143.66,63.06a.69.69,0,0,1,.69.66l.6,13a.69.69,0,0,1-.66.72H144a.69.69,0,0,1-.7-.66l-.59-13a.69.69,0,0,1,.66-.72h.29m0-.18h-.3a.87.87,0,0,0-.83.9l.6,13a.86.86,0,0,0,.87.83h.3a.86.86,0,0,0,.82-.91l-.59-13a.87.87,0,0,0-.87-.83Z"/><path class="cls-37" d="M143.63,63.06h-.26a.7.7,0,0,0-.62.46.92.92,0,0,1,.25-.06h.26a.69.69,0,0,1,.72.66l.6,13a.75.75,0,0,1,0,.26.7.7,0,0,0,.41-.66l-.6-13A.69.69,0,0,0,143.63,63.06Z"/><path class="cls-13" d="M144.35,72.13c-.17.09-.88-1.77-1.38-2.66l0,.74,1.83,3.86L144.69,71a58.65,58.65,0,0,1-1.91-5.56l.05,1.07C143.5,68.63,144.54,72,144.35,72.13Z"/><path class="cls-35" d="M147.32,77.16a.77.77,0,0,1-.78-.74l-.6-13a.78.78,0,0,1,.74-.81l.3,0a.78.78,0,0,1,.78.75l.6,13a.77.77,0,0,1-.74.81Z"/><path class="cls-36" d="M147,62.71a.7.7,0,0,1,.7.66l.59,13a.68.68,0,0,1-.66.72l-.26,0h0a.69.69,0,0,1-.69-.66l-.6-13a.69.69,0,0,1,.66-.73H147m0-.17h-.3a.85.85,0,0,0-.82.9l.59,13a.86.86,0,0,0,.87.83h.3a.87.87,0,0,0,.83-.91l-.6-13a.86.86,0,0,0-.87-.82Z"/><path class="cls-37" d="M147,62.71h-.26a.7.7,0,0,0-.62.47.51.51,0,0,1,.25-.06l.26,0a.69.69,0,0,1,.72.66l.6,13a.55.55,0,0,1,0,.26.67.67,0,0,0,.41-.66l-.59-13A.7.7,0,0,0,147,62.71Z"/><path class="cls-13" d="M147.67,71.78c-.16.09-.88-1.77-1.38-2.65l0,.73,1.83,3.87L148,70.66c-.59-1.33-1.38-3.84-1.91-5.57l.05,1.08C146.82,68.28,147.86,71.68,147.67,71.78Z"/><rect class="cls-38" x="145.5" y="61.05" width="0.59" height="33.21" transform="translate(-3.37 6.68) rotate(-2.59)"/><polygon class="cls-36" points="141.87 62.06 147.52 60.57 147.5 60.12 139.77 62.16 141.28 94.89 143.39 95 141.87 62.06"/><path class="cls-39" d="M142.41,94.62l6.85.37.13-.88-6.47-.4A1.19,1.19,0,0,0,142.41,94.62Z"/><polygon class="cls-38" points="140.72 62.33 147.52 60.54 147.5 60.12 139.77 62.16 141.28 94.89 142.22 94.94 140.72 62.33"/><path class="cls-40" d="M119.28,60.51a4.68,4.68,0,0,0-2.9,3.81l31-8.38L151,53.59l.15-3.33S122.51,59.11,119.28,60.51Z"/><path class="cls-13" d="M119.28,60.51a4.69,4.69,0,0,0-2.68,2.82.68.68,0,0,0,.53,0c1.47-.59,1.48-1.72,4.33-2.63,3.24-1,27.72-7.87,27.72-7.87l1.88-1.16.06-1.37S122.51,59.11,119.28,60.51Z"/><polygon class="cls-38" points="147.48 59.77 116.47 67.94 116.51 68.64 147.53 60.78 147.48 59.77"/><path class="cls-39" d="M189.16,64.63l.3,6.5s.1.65.7.62,2.89-1.13,3-1.68-.21-4.58-.21-4.58a1,1,0,0,0-.76-.76C191.61,64.55,189.13,63.88,189.16,64.63Z"/><path class="cls-41" d="M193.14,70.07a9.73,9.73,0,0,0,0-1.25,1.81,1.81,0,0,1-2.09.73c-.76-.25-.81-3.75-1-4.07s-.58-.26-.85-.27l.27,5.92s.1.65.7.62S193.05,70.62,193.14,70.07Z"/><path class="cls-42" d="M190,67.33s.76,0,.64-.3-1,0-1,0Z"/><path class="cls-43" d="M189.16,64.63l0,.49a.48.48,0,0,0,.24.07,30.83,30.83,0,0,1,3.19.2,7.5,7.5,0,0,1,.43,1.86c-.06-1-.12-1.76-.12-1.76a1,1,0,0,0-.76-.76C191.61,64.55,189.13,63.88,189.16,64.63Z"/><path class="cls-44" d="M193.14,70.07a.22.22,0,0,0,0-.09,7,7,0,0,1-3,1.09c-.22-.12-.13-5.1-.35-5.56-.15-.3-.44-.2-.63-.09l.26,5.71s.1.65.7.62S193.05,70.62,193.14,70.07Z"/><path class="cls-42" d="M192.9,70.41a6.36,6.36,0,0,1-3,.93c-.26-.15-.31-3.74-.29-3.88s.2-.11.4-.13v-.25a.57.57,0,0,1-.51-.49,2.17,2.17,0,0,0-.24-.82l.24,5.36s.1.65.7.62A7,7,0,0,0,192.9,70.41Z"/><path class="cls-42" d="M189.41,70l1.27-.63a.12.12,0,0,0,0-.12l-1.33.36Z"/><path class="cls-13" d="M192.69,65.24A2,2,0,0,1,193,66c0-.31,0-.51,0-.51a1,1,0,0,0-.76-.76c-.47-.15-2.32-.65-2.86-.35,0,.1.15.19.39.21A11.85,11.85,0,0,1,192.69,65.24Z"/><path class="cls-39" d="M190.65,66.58a.43.43,0,0,1,0,.52l-3.39.26,0-1.09Z"/><path class="cls-13" d="M187.52,66.41s2.81.28,3.19.25a.45.45,0,0,0-.06-.08l-3.21-.29Z"/><path class="cls-41" d="M190.75,66.81c-.66-.07-2.53-.14-3.49-.18l0,.73,3.39-.26A.43.43,0,0,0,190.75,66.81Z"/><path class="cls-44" d="M190.74,66.94c-.54-.06-2.42-.08-3.47-.08l0,.5,3.39-.26A.64.64,0,0,0,190.74,66.94Z"/><path class="cls-39" d="M190.58,68.75a.43.43,0,0,1,.16.49l-3.19,1.16-.34-1Z"/><path class="cls-13" d="M187.51,69.43s2.79-.49,3.14-.61a.36.36,0,0,0-.07-.07l-3.18.57Z"/><path class="cls-41" d="M190.73,69c-.65.1-2.47.53-3.41.76l.23.69,3.19-1.16A.35.35,0,0,0,190.73,69Z"/><path class="cls-44" d="M190.76,69.07c-.54.09-2.35.57-3.37.85l.16.48,3.19-1.16A.5.5,0,0,0,190.76,69.07Z"/><path class="cls-45" d="M147.62,63.91l-.38-8.45s-1-4.88,7.4-6.08c9.4-1.33,33.47-.81,33.7,4.19l.29,6.63Z"/><path class="cls-40" d="M147.67,63.91l-.32-7.07s-1-4.88,7.4-6.08c9.17-1.3,32.28-.83,33.64,3.82l0-1c-.23-5-24.3-5.52-33.7-4.19-8.44,1.2-7.4,6.08-7.4,6.08l.38,8.45Z"/><path class="cls-38" d="M187.51,62.07a1.82,1.82,0,0,0,1.12-1.87s-.08-1.74-2.78-2.09-34.83.44-34.83.44l-3.54,1.22.08,3.29,39.6-1"/><path class="cls-36" d="M184.75,59.21c-7.69-.4-30.7.18-33.39.4A4,4,0,0,0,148,61.53l.5,10.87,39.85-.46-.49-10.61S187.75,59.37,184.75,59.21Z"/><path class="cls-35" d="M184.68,60.11c-7.39-.35-29.5.24-32.09.45a4,4,0,0,0-3.25,1.74l.45,9.65,38.3-.52L187.66,62S187.57,60.25,184.68,60.11Z"/><path class="cls-37" d="M184.68,60.11c-7.39-.35-29.5.24-32.09.45a4,4,0,0,0-3.25,1.74l.23,4.91A7,7,0,0,0,151,66c1.49-1.48,4.39-4,7.24-4.1s26.72,0,27.92.85.57,4.88,1.73,4.76L187.66,62S187.57,60.25,184.68,60.11Z"/><path class="cls-46" d="M152.59,60.56a4.35,4.35,0,0,0-2.59,1l37.34-.31a3.24,3.24,0,0,0-2.66-1.12C177.29,59.76,155.18,60.35,152.59,60.56Z"/><path class="cls-13" d="M188,69c-3.91,2.27-27.82,1.57-28.37,1.44s7.46-7.66,9.76-10.33l-.86,0c-2.26,2.75-10.18,10.51-11,10.4s6.42-7,9.18-10.37l-2.48,0c-2.58,3-8.58,8.78-11.37,9.55-1.58.44-2.61-.63-3.26-1.94l.19,4.16,38.3-.52Z"/><path class="cls-45" d="M147.46,60.42l1.61,34.88,9.23-.42,9.34-.43-.21-4.5s.84,3.08,3.73,3.18c2.14.07,14,.92,18.89-1.56,2.19-1.12.51-16.06.11-16.19-.67-.23.72-1-.8-1.38l-.15-3.2-39.72.9-.56-11.24S148.92,59.51,147.46,60.42Z"/><path class="cls-47" d="M190.16,75.38c-.67-.23.72-1-.8-1.38l-.08-1.66c-5.07-.09-28.51-.47-33.51,1.6,0,0-1.73-.48.07,12.29l35.29-1.54C191,80.31,190.38,75.45,190.16,75.38Z"/><path class="cls-48" d="M157.47,91.89c-2.22.2-3.39-13.2-3.86-15.92s-2.16-2.33-2.16-2.33l-1.07,21.6,7.92-.36h0C158.66,93.55,158.87,91.76,157.47,91.89Z"/><path class="cls-48" d="M161.24,73.19a5.79,5.79,0,0,0-4.72,3.87l.31,6.88c6-.65,27.09-8.28,32.51-10.27l0-.81C182.42,71.48,164.89,72.51,161.24,73.19Z"/><path class="cls-24" d="M155.61,91.76l11.31-.52s-1.15-8.58-4.51-8.71S156,83.44,155.61,91.76Z"/><path class="cls-25" d="M164.82,86c2.2-.1,4.19,4.39,4.45,10s-1.31,10.29-3.51,10.39l-4.5.21-.94-20.42Z"/><path class="cls-26" d="M164.82,86l-2,.1a18.7,18.7,0,0,1,3.6,11.44s-.29,1,2.1,2.15c0,0-.68,4.51-3.52,6.77l.8,0c2.2-.1,3.77-4.75,3.51-10.39S167,85.92,164.82,86Z"/><path class="cls-27" d="M164.77,96.26c.26,5.63-1.31,10.29-3.51,10.39s-4.19-4.39-4.45-10,1.32-10.29,3.51-10.39S164.52,90.62,164.77,96.26Z"/><path class="cls-28" d="M161.75,96.39c.19,4-.64,7.28-1.83,7.34s-2.32-3.14-2.5-7.14.63-7.27,1.83-7.33S161.57,92.4,161.75,96.39Z"/><path class="cls-28" d="M159.85,89.5c-1,.59-1.67,3.62-1.5,7.23.15,3.32,1,6.09,1.9,6.89,1-.59,1.67-3.62,1.5-7.23C161.6,93.07,160.8,90.31,159.85,89.5Z"/><path class="cls-29" d="M160.32,86.23a1.8,1.8,0,0,0-.93.34c1.88.82,3.45,4.9,3.68,9.87.22,4.8-.88,8.88-2.57,10a1.7,1.7,0,0,0,.76.16c2.2-.1,3.77-4.76,3.51-10.39S162.52,86.13,160.32,86.23Z"/><path class="cls-30" d="M160.9,86.31c1.64,1.51,2.93,5.38,3.15,10s-.73,8.57-2.23,10.23c1.9-.8,3.19-5.12,3-10.26S162.86,86.92,160.9,86.31Z"/><path class="cls-49" d="M199.3,84.44c2.2-.1,4.19,4.38,4.45,10s-1.31,10.29-3.51,10.39l-4.5.21-.94-20.42Z"/><path class="cls-50" d="M200.46,94.61c.26,5.64-2,10.33-5.06,10.47s-5.74-4.32-6-10,2-10.32,5.06-10.46S200.2,89,200.46,94.61Z"/><path class="cls-51" d="M193.31,84.94c-2.45,1.1-4.14,5.28-3.91,10.18.24,5.14,2.49,9.3,5.21,9.89,2.45-1.1,4.13-5.28,3.9-10.18C198.28,89.68,196,85.53,193.31,84.94Z"/><path class="cls-52" d="M197.14,94.77c.15,3.31-1.18,6-3,6.14s-3.37-2.54-3.52-5.85,1.17-6,3-6.14S197,91.46,197.14,94.77Z"/><path class="cls-53" d="M196.64,94.62c-.13-2.77-1.26-5.06-2.67-5.68l-.35,0c-1.8.09-3.13,2.84-3,6.14.12,2.78,1.25,5.06,2.67,5.68a1.35,1.35,0,0,0,.35,0C195.46,100.68,196.79,97.93,196.64,94.62Z"/><path class="cls-45" d="M204.52,84.91,204.21,78a2,2,0,0,0-1.5-1.81,1.49,1.49,0,0,0-1.09-.71l-2.1,0a3.42,3.42,0,0,0-1.37-1.06c-1.3-.52-17.65-1.63-17.65-1.63l-15.9.73s-7.06-.19-7.76,4.63l.22,4.85c-3,2.79-2.72,8.68-2.72,8.68l1.27.05c.27-9.26,5.61-8.66,5.61-8.66s5.32.07,5.54,12.2c0,0,.12,1.38,1.33,1.32L207.53,95S208,87,204.52,84.91Z"/><path class="cls-54" d="M158.09,75.67l13.65,1.18,1.7-.9-11.87-2A7.24,7.24,0,0,0,158.09,75.67Z"/><path class="cls-40" d="M171.74,76.85c-.51.55.2,4.39.2,4.39s26.12-.41,32.29-2.78l0-.47a2,2,0,0,0-1.5-1.81,1.49,1.49,0,0,0-1.09-.71l-2.1,0L173.44,76A2,2,0,0,0,171.74,76.85Z"/><path class="cls-55" d="M168.7,93.51s.06-1.22,1.15-1.32,36.41-1.28,36.41-1.28A.71.71,0,0,1,207,92C206.48,93.13,168.7,93.51,168.7,93.51Z"/><path class="cls-47" d="M171.63,90l32.83-.8,0-4.66h0l-.3-6.54a2,2,0,0,0-2.06-1.87l-2.19.1-26.26.54A2.28,2.28,0,0,0,171.81,79l.52,9.25S171.56,80,164.24,79A8.77,8.77,0,0,0,157,81l.1,2.06S167.41,75.53,171.63,90Z"/><path class="cls-48" d="M172.32,89.47c-4.44-15-15.06-6.58-15.06-6.58h0c1.48-1,10.5-6.16,14.37,7.1l12.58-.31Z"/><path class="cls-56" d="M173.29,89.69l30.17-1,.06-4h0l-.26-5.6a1.74,1.74,0,0,0-1.92-1.59l-2.06.09-24.65.56a2.08,2.08,0,0,0-1.78,1.9A88.86,88.86,0,0,0,173.29,89.69Z"/><path class="cls-57" d="M180.79,84.18a3.34,3.34,0,1,1-3.48-3.6A3.55,3.55,0,0,1,180.79,84.18Z"/><path class="cls-39" d="M180.91,83.79a3.34,3.34,0,1,1-3.48-3.6A3.55,3.55,0,0,1,180.91,83.79Z"/><path class="cls-44" d="M180.77,83.79a3.34,3.34,0,0,1-3,3.74,3.4,3.4,0,0,1-3.33-3.44,3.7,3.7,0,0,1,1.26-3s-1.34,2.52-.32,3.14S180.62,82.18,180.77,83.79Z"/><path class="cls-42" d="M179.58,83.85s-1-.24-2.32,1.7A1.45,1.45,0,0,1,175,86a3.1,3.1,0,0,0,2.75,1.56A3.26,3.26,0,0,0,180.68,85C180.55,84.15,179.58,83.85,179.58,83.85Z"/><path class="cls-13" d="M180.52,83.81a2.49,2.49,0,1,1-2.58-2.89A2.77,2.77,0,0,1,180.52,83.81Z"/><path class="cls-58" d="M178.6,84a1.52,1.52,0,0,1,1.32,1.71,2.19,2.19,0,0,1-1.71,1.06,2.93,2.93,0,0,1-.26-5.72S176.7,83.7,178.6,84Z"/><path class="cls-59" d="M178.64,86a2.63,2.63,0,0,1-2.45-2.75,3.43,3.43,0,0,1,.21-1.37,3.19,3.19,0,0,0-.64,2.12,2.64,2.64,0,0,0,2.45,2.76,2.19,2.19,0,0,0,1.71-1.06,1.78,1.78,0,0,0,0-.26A2,2,0,0,1,178.64,86Z"/><path class="cls-39" d="M168.37,92.66s-.86,5.82,2.14,6.14l38.17-1.75s1.16.1,1.29-4.55c0,0-.38-.93-1.08-1Z"/><path class="cls-60" d="M210,92.63a.55.55,0,0,0-.28-.12c-1,0-.84,3.08-1.35,3.4s-20.56,1.52-22.29.5-4.4-.2-5.34-.5-1.2-2.38-1.2-2.38h-1.46s1.11,2.61.12,2.67-2.26-2.9-2.26-2.9-2.15-.26-2.88.25,2.11,4.45-.28,3.93a5.22,5.22,0,0,1-3.53-2.64,1.11,1.11,0,0,0-1-.49c0,1.75.33,4.23,2.26,4.44l38.17-1.75S209.82,97.15,210,92.63Z"/><path class="cls-39" d="M182.32,88.06l13.91-.32L196,82.08s.07-1.53-6.18-1.7c-7.87-.22-7.73,2.13-7.73,2.13Z"/><path class="cls-44" d="M196.2,87a21.92,21.92,0,0,1-.45-2.86c-.06-.7-.51-.6-.67-.69a28.64,28.64,0,0,0-.08,3.84l-11.89-2.65c-.38-.07-.62-1-.66-1.8a2.29,2.29,0,0,0-.2-.83.94.94,0,0,0-.19.51l.26,5.55,13.91-.32Z"/><path class="cls-42" d="M196.23,87.64v0c-.43-.33-13.14-.14-13.54-.44a6,6,0,0,1-.5-2.12l.14,3,13.3-.31A2.58,2.58,0,0,0,196.23,87.64Z"/><path class="cls-36" d="M183.09,87.62l12.33-.28-.23-5s.38-1-5.43-1.19c-7-.19-6.89,1.77-6.89,1.77Z"/><path class="cls-61" d="M189.76,81.14c-4.92-.12-6.33.8-6.73,1.37.74-.52,2.44-1.09,6.31-1,5.72.18,5.43,1.19,5.43,1.19l.22,4.62h.43l-.23-5S195.49,81.29,189.76,81.14Z"/><path class="cls-31" d="M160.69,90.82a.39.39,0,0,0-.15,0c-.94,0-1.58,2.6-1.43,5.72s1,5.6,1.95,5.56a.4.4,0,0,0,.15,0,20.12,20.12,0,0,0-.52-11.23Z"/><path class="cls-32" d="M160.05,91.07c-.55.63-.93,2.26-1,4.26.55.73,1.24,1.51,1.61,1.5C161.26,96.8,160.53,92.82,160.05,91.07Z"/><path class="cls-32" d="M159.11,96.59c.15,3.08,1,5.53,1.95,5.49a.4.4,0,0,0,.15,0,12.94,12.94,0,0,0,.5-2.81A4.39,4.39,0,0,0,159.11,96.59Z"/><path class="cls-40" d="M154.34,91.71h.29c.77-12.81,11-10.11,11-10.11-4.24-1.75-8.59,1.42-8.59,1.42C154.06,85.82,154.34,91.71,154.34,91.71Z"/><path class="cls-13" d="M160.8,81.46s6.77-1.54,8.66,9.67l10.46.07-11.23.52S167.39,81.45,160.8,81.46Z"/><path class="cls-62" d="M210,93c0-.15,0-.3,0-.45,0,0-.38-.93-1.08-1l-40.37,1.16c-.52.55,1.1,1.71,1.1,1.71S208.2,93.18,210,93Z"/><path class="cls-63" d="M168.37,96c.21,1.35.78,2.62,2.14,2.77l38.17-1.75s.25,0,.54-.43L173,98.28a4.42,4.42,0,0,1-3.49-1.72A1.4,1.4,0,0,0,168.37,96Z"/><path class="cls-13" d="M169.37,93.13,209,91.9l-39.2,1.81S169.23,93.89,169.37,93.13Z"/><path class="cls-64" d="M201.34,77.48l-2.06.09-24.65.56a2.08,2.08,0,0,0-1.78,1.9,88.86,88.86,0,0,0,.44,9.66l.72,0-.42-9.09c0-1.08.48-1.25.48-1.25l29.05-.81A1.77,1.77,0,0,0,201.34,77.48Z"/><path class="cls-40" d="M171.63,90s-.53.55,0,.71,33.08-1,33.08-1,.26-.53-.28-.52Z"/><path class="cls-40" d="M186.15,74.62c.16.36,9.95.46,13,.48a3.21,3.21,0,0,0-1-.65c-1.3-.52-17.65-1.63-17.65-1.63l-.44,0C182.36,73.39,186,74.33,186.15,74.62Z"/><path class="cls-40" d="M148,71.82l1.08,23.48,3.14-.14c.22-4.35.79-17.78-.41-20.81A3.82,3.82,0,0,0,148,71.82Z"/><polygon class="cls-40" points="148.01 72.4 189.24 71.5 189.21 70.8 149.49 71.7 149.46 71.21 147.96 71.24 148.01 72.4"/><path class="cls-43" d="M180.78,82.9a3.43,3.43,0,0,0-3.35-2.71,3,3,0,0,0-1.35.4c-.28.38-.73,1.09-.42,1.29s.62-.95,2-1.13S180,81.51,180.78,82.9Z"/><path class="cls-40" d="M207.41,91.44c-.26-2.41-1-5.37-2.86-6.51l-.2,4.59s.49-2.51.94-2.2a9.85,9.85,0,0,1,2.12,4.11Z"/><path class="cls-43" d="M189.79,80.38c-5.06-.14-6.81.78-7.41,1.46a.4.4,0,0,0,.46.33,8.28,8.28,0,0,1,4.69-1.35s6.14-.42,8.44,1.36v-.1S196,80.55,189.79,80.38Z"/><path class="cls-39" d="M194.87,83l-12,.23,0,.54,12-.3A.38.38,0,0,0,194.87,83Z"/><path class="cls-43" d="M182.9,83.4c1.62,0,11.59-.17,11.77-.26a.14.14,0,0,0,.07-.18l-11.85.23Z"/><path class="cls-44" d="M195,83.23c-.85.11-10.73.26-12.06.28v.22l12-.3A.42.42,0,0,0,195,83.23Z"/><path class="cls-39" d="M194.92,84.25l-12,.23,0,.54,12-.3A.37.37,0,0,0,194.92,84.25Z"/><path class="cls-43" d="M183,84.69c1.62,0,11.59-.17,11.77-.26a.14.14,0,0,0,.07-.18L183,84.48Z"/><path class="cls-44" d="M195,84.52c-.85.11-10.73.26-12.06.28V85l12-.3A.42.42,0,0,0,195,84.52Z"/><path class="cls-39" d="M195,85.58l-12,.23,0,.54,12-.3A.36.36,0,0,0,195,85.58Z"/><path class="cls-43" d="M183,86c1.63,0,11.6-.17,11.77-.26a.15.15,0,0,0,.08-.18L183,85.81Z"/><path class="cls-44" d="M195.08,85.85c-.86.11-10.74.26-12.06.28v.22l12-.3A.38.38,0,0,0,195.08,85.85Z"/><path class="cls-39" d="M195,86.62l-12,.23,0,.54,12-.3A.36.36,0,0,0,195,86.62Z"/><path class="cls-43" d="M183.06,87.06c1.62,0,11.6-.17,11.77-.26a.15.15,0,0,0,.08-.18l-11.86.23Z"/><path class="cls-44" d="M195.13,86.89c-.86.11-10.74.26-12.06.28v.22l12-.3A.38.38,0,0,0,195.13,86.89Z"/><path class="cls-57" d="M203.11,83.15a3.34,3.34,0,1,1-3.48-3.59A3.55,3.55,0,0,1,203.11,83.15Z"/><path class="cls-39" d="M203.23,82.76a3.34,3.34,0,1,1-3.48-3.6A3.55,3.55,0,0,1,203.23,82.76Z"/><path class="cls-44" d="M203.09,82.77a3.34,3.34,0,0,1-3,3.73,3.4,3.4,0,0,1-3.33-3.44A3.7,3.7,0,0,1,198,80s-1.34,2.52-.32,3.14S202.94,81.16,203.09,82.77Z"/><path class="cls-42" d="M201.9,82.82s-1-.23-2.32,1.7a1.46,1.46,0,0,1-2.24.43,3.09,3.09,0,0,0,2.75,1.55A3.25,3.25,0,0,0,203,84C202.87,83.12,201.9,82.82,201.9,82.82Z"/><path class="cls-13" d="M202.84,82.78a2.49,2.49,0,1,1-2.57-2.89A2.78,2.78,0,0,1,202.84,82.78Z"/><path class="cls-58" d="M200.92,83a1.52,1.52,0,0,1,1.32,1.71,2.17,2.17,0,0,1-1.7,1.06,2.92,2.92,0,0,1-.27-5.72S199,82.67,200.92,83Z"/><path class="cls-59" d="M201,85a2.64,2.64,0,0,1-2.45-2.76,3.53,3.53,0,0,1,.21-1.36,3.16,3.16,0,0,0-.64,2.12,2.63,2.63,0,0,0,2.46,2.75,2.17,2.17,0,0,0,1.7-1.06s0-.1,0-.25A2.08,2.08,0,0,1,201,85Z"/><path class="cls-43" d="M203.1,81.87a3.43,3.43,0,0,0-3.35-2.71,3.08,3.08,0,0,0-1.35.4c-.28.39-.73,1.09-.42,1.29s.62-.95,2-1.13S202.34,80.48,203.1,81.87Z"/><path class="cls-65" d="M198.57,104.93l1.67-.08c1.6-.07,2.86-2.55,3.34-6.07a3,3,0,0,0-1.61.29A11.56,11.56,0,0,1,198.57,104.93Z"/><path class="cls-13" d="M182.92,60.05l-1.2,0-8.16,11.11,2.87-.63Z"/><path class="cls-13" d="M184.4,60.1l-.54,0L177,71l1.7-.07Z"/><path class="cls-56" d="M149.81,57.52l36.43-.59s.64-2.24-.77-2.78-5.35-2.79-15.14-2.83C152.93,51.26,149.7,55,149.7,55Z"/><path class="cls-64" d="M185.47,54.15c-1.42-.55-5.35-2.79-15.14-2.83-14.32,0-19,2.48-20.27,3.38,2.36-1.1,7.68-2.66,18.95-2.62,9.79,0,14.36,2.36,15.77,2.9.89.34.91,1.25.85,2h.61S186.88,54.69,185.47,54.15Z"/><path class="cls-64" d="M155.64,55.48a1.4,1.4,0,1,1-1.46-1.5A1.49,1.49,0,0,1,155.64,55.48Z"/><path class="cls-66" d="M155.73,55.33a1.4,1.4,0,1,1-1.46-1.5A1.48,1.48,0,0,1,155.73,55.33Z"/><path class="cls-67" d="M154.69,56.45a1.48,1.48,0,0,1-1.46-1.5,1.88,1.88,0,0,1,.08-.63,1.69,1.69,0,0,0-.36,1.14,1.48,1.48,0,0,0,1.46,1.5,1.38,1.38,0,0,0,1.23-1A1.28,1.28,0,0,1,154.69,56.45Z"/><path class="cls-68" d="M154.54,56.73a1.48,1.48,0,0,1-1.46-1.5,1.76,1.76,0,0,1,.16-.8,1.62,1.62,0,0,0-.29,1,1.48,1.48,0,0,0,1.46,1.5,1.35,1.35,0,0,0,1.16-.83A1.33,1.33,0,0,1,154.54,56.73Z"/><path class="cls-69" d="M154.27,53.83a1.21,1.21,0,0,0-.69.25.84.84,0,0,0-.13,1c.4.52,2-.3,2.26.57a1.51,1.51,0,0,0,0-.3A1.49,1.49,0,0,0,154.27,53.83Z"/><path class="cls-70" d="M155.36,54.35a1.31,1.31,0,0,0-1-.52c-.54.31-1.23.9-.78,1.83,0,0,.32.37.78,0S154.8,54.19,155.36,54.35Z"/><path class="cls-64" d="M158.89,55.33a1.4,1.4,0,1,1-1.46-1.5A1.48,1.48,0,0,1,158.89,55.33Z"/><path class="cls-71" d="M159,55.18a1.4,1.4,0,1,1-1.46-1.5A1.48,1.48,0,0,1,159,55.18Z"/><path class="cls-72" d="M157.94,56.3a1.48,1.48,0,0,1-1.46-1.5,1.66,1.66,0,0,1,.09-.63,1.65,1.65,0,0,0-.37,1.14,1.48,1.48,0,0,0,1.46,1.5,1.38,1.38,0,0,0,1.23-1A1.28,1.28,0,0,1,157.94,56.3Z"/><path class="cls-73" d="M157.79,56.58a1.48,1.48,0,0,1-1.46-1.5,1.76,1.76,0,0,1,.16-.8,1.62,1.62,0,0,0-.29,1,1.48,1.48,0,0,0,1.46,1.5,1.35,1.35,0,0,0,1.16-.83A1.33,1.33,0,0,1,157.79,56.58Z"/><path class="cls-74" d="M157.52,53.68a1.21,1.21,0,0,0-.69.25.84.84,0,0,0-.13,1c.4.52,2-.3,2.26.57a1.51,1.51,0,0,0,0-.3A1.49,1.49,0,0,0,157.52,53.68Z"/><path class="cls-70" d="M158.61,54.2a1.34,1.34,0,0,0-1-.52c-.55.31-1.24.9-.79,1.83,0,0,.32.37.78,0S158.05,54,158.61,54.2Z"/><path class="cls-64" d="M182.27,55.26a1.34,1.34,0,1,1-1.22-1.6A1.42,1.42,0,0,1,182.27,55.26Z"/><path class="cls-66" d="M182.37,55.13a1.34,1.34,0,1,1-1.22-1.6A1.42,1.42,0,0,1,182.37,55.13Z"/><path class="cls-67" d="M181.26,56.08a1.43,1.43,0,0,1-1.22-1.6,1.9,1.9,0,0,1,.15-.59,1.6,1.6,0,0,0-.47,1,1.42,1.42,0,0,0,1.21,1.6,1.35,1.35,0,0,0,1.29-.81A1.31,1.31,0,0,1,181.26,56.08Z"/><path class="cls-68" d="M181.08,56.33a1.43,1.43,0,0,1-1.21-1.6,1.58,1.58,0,0,1,.24-.75,1.57,1.57,0,0,0-.39,1,1.42,1.42,0,0,0,1.21,1.6,1.29,1.29,0,0,0,1.2-.66A1.26,1.26,0,0,1,181.08,56.33Z"/><path class="cls-69" d="M181.15,53.53a1.16,1.16,0,0,0-.68.16.8.8,0,0,0-.23.92c.32.54,1.92-.06,2.09.8a2.36,2.36,0,0,0,0-.28A1.42,1.42,0,0,0,181.15,53.53Z"/><path class="cls-70" d="M182.14,54.15a1.32,1.32,0,0,0-.9-.61c-.55.23-1.28.72-1,1.65a.49.49,0,0,0,.75.05C181.42,55,181.62,53.94,182.14,54.15Z"/><path class="cls-64" d="M179.06,55a1.34,1.34,0,1,1-1.22-1.6A1.43,1.43,0,0,1,179.06,55Z"/><path class="cls-71" d="M179.16,54.88a1.34,1.34,0,1,1-2.65-.2,1.34,1.34,0,1,1,2.65.2Z"/><path class="cls-72" d="M178.05,55.82a1.42,1.42,0,0,1-1.22-1.59,1.83,1.83,0,0,1,.15-.59,1.6,1.6,0,0,0-.47,1,1.42,1.42,0,0,0,1.21,1.6,1.35,1.35,0,0,0,1.29-.82A1.23,1.23,0,0,1,178.05,55.82Z"/><path class="cls-73" d="M177.87,56.07a1.41,1.41,0,0,1-1.21-1.59,1.55,1.55,0,0,1,.24-.75,1.57,1.57,0,0,0-.39,1,1.42,1.42,0,0,0,1.21,1.6,1.3,1.3,0,0,0,1.2-.66A1.26,1.26,0,0,1,177.87,56.07Z"/><path class="cls-74" d="M177.94,53.28a1.16,1.16,0,0,0-.68.16.8.8,0,0,0-.23.92c.31.54,1.92-.06,2.08.8a1.26,1.26,0,0,0,0-.28A1.42,1.42,0,0,0,177.94,53.28Z"/><path class="cls-70" d="M178.92,53.9a1.28,1.28,0,0,0-.89-.61c-.55.23-1.28.72-1,1.65a.5.5,0,0,0,.75.05C178.21,54.71,178.41,53.69,178.92,53.9Z"/><path class="cls-13" d="M160.28,51.81l.25,5.54,16-.26-.35-5.44a53,53,0,0,0-5.81-.33A88.07,88.07,0,0,0,160.28,51.81Z"/><path class="cls-34" d="M118.88,90.94c0-1.1-.13-5.28-.26-5.58s-1-.33-1.32-.35l.3,5.89Z"/><path class="cls-39" d="M142.22,94.94l6.85.36,0-.56-6.61-.28S142.25,94.34,142.22,94.94Z"/><path class="cls-35" d="M119.11,78.39a1.12,1.12,0,0,1-1.12-1l-.33-7.2a1.27,1.27,0,0,1,1-1.26l1.71-.31.2,0a.92.92,0,0,1,1,.91l.36,7.76a1,1,0,0,1-.28.75,1.1,1.1,0,0,1-.78.36Z"/><path class="cls-36" d="M120.59,68.69a.81.81,0,0,1,.84.78l.35,7.76a1,1,0,0,1-.94,1l-1.7.05h0a1,1,0,0,1-1-.91l-.33-7.21A1.14,1.14,0,0,1,118.7,69l1.72-.31a.52.52,0,0,1,.17,0m0-.26h0l-.22,0-1.71.32a1.4,1.4,0,0,0-1.13,1.38l.33,7.21a1.25,1.25,0,0,0,1.25,1.16h0l1.7-.06a1.22,1.22,0,0,0,.87-.39,1.16,1.16,0,0,0,.32-.85l-.36-7.76a1.07,1.07,0,0,0-1.09-1Z"/><path class="cls-37" d="M120.84,78.21a1,1,0,0,0,.94-1l-.28-6.07a3,3,0,0,0-.55,1.2c-.51,2-1.29,3.82-2.3,4l-.57.14,0,.81a1,1,0,0,0,1,.91Z"/><path class="cls-13" d="M118.49,78.05a1,1,0,0,0,.65.21l1.7-.05a1,1,0,0,0,.94-1l-.18-4.07a2.65,2.65,0,0,1-.34.87c-.27.29-2.44-2-3.44-3.17l0,.63c1.05,1.28,3.45,4.28,3,4.47s-2.12-2.19-3-3.42l0,.61c.82,1.24,2.38,3.71,2.08,4.21S119,78,118.49,78.05Z"/><line class="cls-75" x1="117.88" y1="72.18" x2="121.64" y2="71.82"/><path class="cls-46" d="M121.48,70.73l0-1.26a.82.82,0,0,0-1-.76L118.7,69a1.14,1.14,0,0,0-.92,1.12v.21C119,70.46,120.4,70.6,121.48,70.73Z"/><path class="cls-35" d="M124.28,78.1a1.2,1.2,0,0,1-1.2-1.12l-.36-7.74a1.36,1.36,0,0,1,1.1-1.35l1.85-.34.21,0a1,1,0,0,1,1,1l.39,8.35a1.15,1.15,0,0,1-.3.81,1.18,1.18,0,0,1-.84.38Z"/><path class="cls-36" d="M125.88,67.67a.88.88,0,0,1,.9.84l.38,8.35a1,1,0,0,1-1,1l-1.83,0h0a1.06,1.06,0,0,1-1.07-1l-.35-7.75a1.23,1.23,0,0,1,1-1.21l1.84-.34h.19m0-.28h0l-.24,0-1.84.34a1.52,1.52,0,0,0-1.22,1.49l.36,7.75a1.34,1.34,0,0,0,1.34,1.25h0l1.83-.06a1.34,1.34,0,0,0,.94-.42,1.25,1.25,0,0,0,.33-.92l-.38-8.34a1.15,1.15,0,0,0-1.17-1.11Z"/><path class="cls-37" d="M126.15,77.91a1,1,0,0,0,1-1l-.3-6.54a3.16,3.16,0,0,0-.59,1.3c-.56,2.09-1.4,4.11-2.48,4.34l-.62.15,0,.87a1.06,1.06,0,0,0,1.11,1Z"/><path class="cls-13" d="M123.62,77.74a1.1,1.1,0,0,0,.7.22l1.83,0a1,1,0,0,0,1-1l-.2-4.38a2.72,2.72,0,0,1-.36.93c-.29.32-2.62-2.21-3.71-3.41l0,.68c1.14,1.37,3.73,4.6,3.25,4.81s-2.28-2.35-3.19-3.68l0,.66c.88,1.33,2.55,4,2.24,4.53A2.52,2.52,0,0,1,123.62,77.74Z"/><line class="cls-76" x1="122.96" y1="71.42" x2="127" y2="71.03"/><path class="cls-46" d="M126.84,69.86l-.06-1.35a.89.89,0,0,0-1.09-.83l-1.84.34a1.23,1.23,0,0,0-1,1.21v.22C124.11,69.57,125.67,69.72,126.84,69.86Z"/><path class="cls-35" d="M130.05,78a1.35,1.35,0,0,1-1.35-1.25l-.4-8.67a1.54,1.54,0,0,1,1.24-1.51l2.06-.38a1.05,1.05,0,0,1,.24,0A1.13,1.13,0,0,1,133,67.3l.43,9.34a1.23,1.23,0,0,1-.34.91,1.28,1.28,0,0,1-.94.43Z"/><path class="cls-36" d="M131.84,66.36a1,1,0,0,1,1,.94l.43,9.35a1.15,1.15,0,0,1-1.13,1.18l-2.06.06h0a1.18,1.18,0,0,1-1.19-1.1l-.4-8.68a1.37,1.37,0,0,1,1.11-1.35l2.06-.38a.75.75,0,0,1,.21,0m0-.31h0l-.27,0-2.06.38a1.69,1.69,0,0,0-1.36,1.66l.4,8.68a1.51,1.51,0,0,0,1.5,1.4h0l2.06-.07a1.51,1.51,0,0,0,1.05-.47,1.39,1.39,0,0,0,.37-1l-.43-9.35a1.28,1.28,0,0,0-1.31-1.24Z"/><path class="cls-37" d="M132.15,77.83a1.15,1.15,0,0,0,1.13-1.18l-.34-7.32a3.43,3.43,0,0,0-.66,1.46c-.62,2.34-1.57,4.6-2.77,4.85l-.7.17.05,1a1.19,1.19,0,0,0,1.23,1.1Z"/><path class="cls-13" d="M129.31,77.64a1.23,1.23,0,0,0,.78.25l2.06-.06a1.15,1.15,0,0,0,1.13-1.18l-.23-4.9a3.37,3.37,0,0,1-.4,1c-.33.36-2.94-2.47-4.15-3.82l0,.76c1.27,1.54,4.17,5.15,3.63,5.39s-2.55-2.64-3.57-4.12l0,.74c1,1.49,2.86,4.45,2.5,5.07S130,77.53,129.31,77.64Z"/><line class="cls-77" x1="128.57" y1="70.56" x2="133.1" y2="70.13"/><path class="cls-46" d="M132.91,68.81l-.06-1.51a1,1,0,0,0-1.22-.92l-2.06.38a1.37,1.37,0,0,0-1.11,1.35v.25C129.86,68.49,131.61,68.66,132.91,68.81Z"/><path class="cls-35" d="M136,78.11a1.43,1.43,0,0,1-1.37-1.4L134.17,67a1.65,1.65,0,0,1,1.23-1.68l2.06-.41a1,1,0,0,1,.24,0,1.22,1.22,0,0,1,1.18,1.22l.48,10.48a1.46,1.46,0,0,1-.38,1.06,1.27,1.27,0,0,1-.9.42Z"/><path class="cls-36" d="M137.7,65a1,1,0,0,1,1,1.06l.48,10.48a1.21,1.21,0,0,1-1.12,1.31L136,78h0a1.27,1.27,0,0,1-1.21-1.25L134.33,67a1.5,1.5,0,0,1,1.1-1.51l2.07-.41a.71.71,0,0,1,.2,0m0-.33h0a1.24,1.24,0,0,0-.27,0l-2.06.41A1.82,1.82,0,0,0,134,67l.44,9.73A1.6,1.6,0,0,0,136,78.27h0l2.05-.06a1.44,1.44,0,0,0,1-.47,1.62,1.62,0,0,0,.42-1.18L139,66.09a1.37,1.37,0,0,0-1.34-1.38Z"/><path class="cls-37" d="M138.08,77.89a1.21,1.21,0,0,0,1.12-1.31l-.38-8.21a3.91,3.91,0,0,0-.65,1.63c-.61,2.62-1.54,5.14-2.75,5.43l-.69.18.05,1.09A1.27,1.27,0,0,0,136,78Z"/><path class="cls-13" d="M135.24,77.66A1.21,1.21,0,0,0,136,78l2.06-.06a1.21,1.21,0,0,0,1.12-1.31l-.25-5.5a3.7,3.7,0,0,1-.4,1.17c-.33.39-3-2.79-4.17-4.31l0,.85c1.27,1.74,4.19,5.8,3.66,6.06s-2.57-3-3.6-4.63l0,.82c1,1.68,2.89,5,2.54,5.7S135.9,77.54,135.24,77.66Z"/><line class="cls-78" x1="134.46" y1="69.73" x2="138.99" y2="69.26"/><path class="cls-46" d="M138.79,67.79l-.07-1.69a1,1,0,0,0-1.22-1l-2.07.41a1.5,1.5,0,0,0-1.1,1.51l0,.28C135.74,67.41,137.49,67.62,138.79,67.79Z"/></g></g></g></svg>