<svg width="24" height="24" viewBox="0 0 24 24" fill="none" xmlns="http://www.w3.org/2000/svg">
<path fill-rule="evenodd" clip-rule="evenodd" d="M6.27998 3.85995C6.22671 3.8998 6.18294 3.95096 6.15181 4.00975C6.12069 4.06854 6.10298 4.1335 6.09998 4.19995V19.7999C6.10348 19.8733 6.12218 19.9451 6.15491 20.0109C6.18763 20.0766 6.23366 20.1348 6.29007 20.1818C6.34649 20.2288 6.41205 20.2636 6.48262 20.284C6.55318 20.3043 6.6272 20.3097 6.69998 20.2999H17.3C17.4532 20.2914 17.5999 20.2355 17.72 20.1399C17.7732 20.1001 17.817 20.0489 17.8481 19.9902C17.8793 19.9314 17.897 19.8664 17.9 19.7999V6.92995L14.21 3.69995H6.69998C6.54573 3.70334 6.39738 3.75985 6.27998 3.85995V3.85995ZM5.63998 3.08995C5.93813 2.84223 6.31237 2.70454 6.69998 2.69995H14.59L18.9 6.46995V19.7999C18.8979 20.0134 18.8483 20.2238 18.7549 20.4157C18.6615 20.6077 18.5266 20.7765 18.36 20.91C18.0595 21.1535 17.6867 21.2907 17.3 21.2999H6.69998C6.49574 21.3093 6.2917 21.2777 6.0999 21.2069C5.9081 21.1361 5.73244 21.0276 5.58328 20.8878C5.43413 20.7479 5.31451 20.5796 5.2315 20.3928C5.14849 20.2059 5.10377 20.0044 5.09998 19.7999V4.19995C5.10207 3.98647 5.15161 3.77613 5.24501 3.58416C5.3384 3.39218 5.47331 3.22337 5.63998 3.08995V3.08995Z" />
<path fill-rule="evenodd" clip-rule="evenodd" d="M13.9 5.9V3H14.9V5.9C14.898 5.93955 14.9051 5.97902 14.9207 6.01542C14.9363 6.05181 14.96 6.08416 14.99 6.11C15.0811 6.17213 15.1897 6.20364 15.3 6.2H18.4V7.2H15.3C14.9372 7.21823 14.5807 7.10057 14.3 6.87C14.1665 6.74739 14.0614 6.59698 13.9923 6.42939C13.9232 6.2618 13.8917 6.08109 13.9 5.9V5.9Z" />
<path fill-rule="evenodd" clip-rule="evenodd" d="M8 12C8 11.8674 8.05268 11.7402 8.14645 11.6464C8.24021 11.5527 8.36739 11.5 8.5 11.5H15.5C15.6326 11.5 15.7598 11.5527 15.8536 11.6464C15.9473 11.7402 16 11.8674 16 12C16 12.1326 15.9473 12.2598 15.8536 12.3536C15.7598 12.4473 15.6326 12.5 15.5 12.5H8.5C8.36739 12.5 8.24021 12.4473 8.14645 12.3536C8.05268 12.2598 8 12.1326 8 12Z" />
<path fill-rule="evenodd" clip-rule="evenodd" d="M8 13.8C8 13.6674 8.05268 13.5403 8.14645 13.4465C8.24021 13.3527 8.36739 13.3 8.5 13.3H15.5C15.6326 13.3 15.7598 13.3527 15.8536 13.4465C15.9473 13.5403 16 13.6674 16 13.8C16 13.9327 15.9473 14.0598 15.8536 14.1536C15.7598 14.2474 15.6326 14.3 15.5 14.3H8.5C8.36739 14.3 8.24021 14.2474 8.14645 14.1536C8.05268 14.0598 8 13.9327 8 13.8Z" />
<path fill-rule="evenodd" clip-rule="evenodd" d="M8 15.5C8 15.3674 8.05268 15.2402 8.14645 15.1464C8.24021 15.0527 8.36739 15 8.5 15H15.5C15.6326 15 15.7598 15.0527 15.8536 15.1464C15.9473 15.2402 16 15.3674 16 15.5C16 15.6326 15.9473 15.7598 15.8536 15.8536C15.7598 15.9473 15.6326 16 15.5 16H8.5C8.36739 16 8.24021 15.9473 8.14645 15.8536C8.05268 15.7598 8 15.6326 8 15.5Z" />
<path fill-rule="evenodd" clip-rule="evenodd" d="M8 17.3C8 17.1674 8.05268 17.0403 8.14645 16.9465C8.24021 16.8527 8.36739 16.8 8.5 16.8H13.4C13.5326 16.8 13.6598 16.8527 13.7536 16.9465C13.8473 17.0403 13.9 17.1674 13.9 17.3C13.9 17.4327 13.8473 17.5598 13.7536 17.6536C13.6598 17.7474 13.5326 17.8 13.4 17.8H8.5C8.36739 17.8 8.24021 17.7474 8.14645 17.6536C8.05268 17.5598 8 17.4327 8 17.3Z" />
</svg>
