<svg width="24" height="24" viewBox="0 0 24 24" fill="none" xmlns="http://www.w3.org/2000/svg">
<path fill-rule="evenodd" clip-rule="evenodd" d="M11.0297 2.02202C12.4481 1.79287 13.9016 2.07855 15.1278 2.82746C16.352 3.57523 17.269 4.73559 17.7135 6.09942C18.3799 7.98977 17.9518 9.89469 16.9835 11.9195C16.1641 13.6333 14.9208 15.5053 13.5277 17.6029C13.2817 17.9732 13.0311 18.3506 12.7773 18.7353L12.7733 18.7415L12.7691 18.7475C12.6823 18.8709 12.5672 18.9717 12.4333 19.0412C12.2994 19.1108 12.1508 19.1471 12 19.1471C11.8491 19.1471 11.7005 19.1108 11.5666 19.0412C11.4328 18.9717 11.3176 18.8709 11.2309 18.7475L11.2267 18.7416L11.2227 18.7356C10.9803 18.3685 10.7408 18.0082 10.5057 17.6543C9.37228 15.9488 8.33856 14.3933 7.55145 12.9565C6.60174 11.223 5.97038 9.59343 5.96996 8.00164C5.96121 6.56547 6.4662 5.17347 7.39378 4.07696C8.3217 2.98005 9.61134 2.25117 11.0297 2.02202ZM14.6065 3.68087C13.5841 3.05636 12.372 2.81813 11.1892 3.00922C10.0064 3.20031 8.93103 3.8081 8.15724 4.72281C7.38346 5.63751 6.96233 6.7988 6.96995 7.99687L6.96997 8.00005C6.96996 9.33774 7.5035 10.7877 8.42847 12.4761C9.19308 13.8717 10.1974 15.3832 11.3303 17.0883C11.549 17.4174 11.7725 17.7537 11.9999 18.0978C12.2389 17.7359 12.4734 17.3827 12.7025 17.0376C14.0984 14.935 15.2949 13.1328 16.0814 11.4881C17.0021 9.5626 17.3091 7.95445 16.7686 6.42682L16.7642 6.41453L16.7644 6.41448C16.3944 5.27496 15.629 4.30537 14.6065 3.68087Z" />
<path fill-rule="evenodd" clip-rule="evenodd" d="M12 6.07996C10.9396 6.07996 10.08 6.93957 10.08 7.99996C10.08 9.06034 10.9396 9.91996 12 9.91996C13.0603 9.91996 13.92 9.06034 13.92 7.99996C13.92 6.93957 13.0603 6.07996 12 6.07996ZM9.07996 7.99996C9.07996 6.38728 10.3873 5.07996 12 5.07996C13.6126 5.07996 14.92 6.38728 14.92 7.99996C14.92 9.61263 13.6126 10.92 12 10.92C10.3873 10.92 9.07996 9.61263 9.07996 7.99996Z" />
<path fill-rule="evenodd" clip-rule="evenodd" d="M16.1583 16.7193C16.2084 16.4478 16.4691 16.2682 16.7407 16.3183C17.9851 16.5478 19.053 16.8692 19.8236 17.2653C20.2083 17.4631 20.5425 17.6914 20.7865 17.9563C21.0328 18.2236 21.21 18.5552 21.21 18.94C21.21 19.5391 20.7924 20.0011 20.3055 20.3332C19.8019 20.6767 19.1061 20.9663 18.2912 21.2016C16.6547 21.6742 14.4233 21.96 11.98 21.96C9.53665 21.96 7.30287 21.6742 5.66398 21.2017C4.8479 20.9664 4.15088 20.6769 3.64646 20.3335C3.15893 20.0017 2.73999 19.5397 2.73999 18.94C2.73999 18.5564 2.91551 18.2253 3.15975 17.9579C3.40169 17.6931 3.73294 17.4648 4.11351 17.2674C4.8757 16.8721 5.92911 16.553 7.14946 16.3283C7.42104 16.2783 7.68173 16.4579 7.73173 16.7295C7.78172 17.0011 7.6021 17.2618 7.33052 17.3118C6.16087 17.5271 5.21428 17.823 4.57397 18.1551C4.25329 18.3215 4.03267 18.4851 3.89804 18.6324C3.76572 18.7773 3.73999 18.8787 3.73999 18.94C3.73999 19.0354 3.81105 19.2359 4.20915 19.5068C4.59035 19.7663 5.17458 20.0199 5.941 20.2408C7.46711 20.6808 9.60333 20.96 11.98 20.96C14.3567 20.96 16.4903 20.6808 18.0138 20.2409C18.7789 20.02 19.3618 19.7665 19.742 19.5071C20.1388 19.2364 20.21 19.0359 20.21 18.94C20.21 18.8799 20.1847 18.7789 20.051 18.6338C19.9149 18.4861 19.6917 18.3219 19.3664 18.1547C18.7169 17.8208 17.7548 17.5222 16.5593 17.3017C16.2877 17.2516 16.1082 16.9909 16.1583 16.7193Z" />
</svg>
