<svg width="24" height="24" viewBox="0 0 24 24" fill="none" xmlns="http://www.w3.org/2000/svg">
<path d="M9.64002 19.62H9.47002C8.53445 19.5901 7.62389 19.3106 6.83268 18.8104C6.04146 18.3102 5.39835 17.6076 4.96998 16.7754C4.5416 15.9431 4.34353 15.0114 4.39629 14.0768C4.44904 13.1423 4.7507 12.2388 5.27002 11.46C5.46794 11.1759 5.68867 10.9084 5.93002 10.66C6.41491 10.1688 6.99258 9.77882 7.62947 9.51273C8.26636 9.24664 8.94978 9.10976 9.64002 9.11004V9.11004C10.3298 9.10679 11.0133 9.24133 11.6504 9.50578C12.2875 9.77023 12.8653 10.1593 13.35 10.65C14.0922 11.384 14.5992 12.3222 14.8066 13.3452C15.0139 14.3681 14.9122 15.4297 14.5144 16.3947C14.1166 17.3597 13.4407 18.1846 12.5727 18.7643C11.7047 19.344 10.6838 19.6523 9.64002 19.65V19.62ZM9.64002 18.62H9.77002C10.385 18.6006 10.9882 18.447 11.5375 18.1699C12.0868 17.8928 12.5689 17.499 12.95 17.016C13.3311 16.533 13.6019 15.9725 13.7436 15.3738C13.8852 14.7751 13.8942 14.1526 13.77 13.55C13.6164 12.7221 13.2235 11.9572 12.64 11.35C12.2472 10.9547 11.7797 10.6414 11.2647 10.4285C10.7496 10.2156 10.1973 10.1074 9.64002 10.11V10.11C9.08287 10.1085 8.53092 10.2172 8.01602 10.43C7.50111 10.6429 7.03345 10.9555 6.64002 11.35C6.44144 11.5479 6.26383 11.7657 6.11002 12C5.68298 12.6374 5.43689 13.3787 5.39796 14.1449C5.35904 14.9111 5.52874 15.6736 5.88897 16.3509C6.24921 17.0283 6.78649 17.5952 7.44355 17.9913C8.1006 18.3874 8.85282 18.5978 9.62002 18.6L9.64002 18.62Z" />
<path d="M9.63002 15.83C9.31447 15.83 9.00204 15.7675 8.71076 15.6462C8.41948 15.5248 8.15512 15.347 7.93292 15.1229C7.71072 14.8989 7.5351 14.633 7.41617 14.3408C7.29724 14.0485 7.23737 13.7355 7.24002 13.42C7.22582 13.267 7.22582 13.113 7.24002 12.96C7.36551 12.3372 7.73283 11.7896 8.26145 11.4371C8.79007 11.0847 9.43685 10.9563 10.06 11.08C10.5401 11.1651 10.983 11.3944 11.3295 11.7374C11.6761 12.0804 11.91 12.5208 12 13C12.0142 13.153 12.0142 13.307 12 13.46C12.0001 14.094 11.7503 14.7025 11.3048 15.1536C10.8593 15.6047 10.254 15.8621 9.62002 15.87L9.63002 15.83ZM9.63002 12.03C9.30621 12.0309 8.99271 12.1439 8.74292 12.35C8.49312 12.556 8.32246 12.8423 8.26002 13.16C8.25019 13.2497 8.25019 13.3403 8.26002 13.43C8.25737 13.6121 8.29078 13.7928 8.35833 13.9619C8.42587 14.131 8.5262 14.2851 8.65355 14.4152C8.7809 14.5454 8.93274 14.649 9.10033 14.7202C9.26792 14.7914 9.44794 14.8287 9.63002 14.83C10.0013 14.83 10.3574 14.6825 10.62 14.4199C10.8825 14.1574 11.03 13.8013 11.03 13.43C11.0398 13.3403 11.0398 13.2497 11.03 13.16C10.9779 12.8892 10.8465 12.64 10.6524 12.4441C10.4583 12.2483 10.2103 12.1146 9.94002 12.06C9.83966 12.0269 9.73548 12.0067 9.63002 12V12.03Z" />
<path d="M6.55998 18.5C6.48411 18.4976 6.40942 18.4807 6.33998 18.45C6.2808 18.4212 6.22789 18.381 6.18429 18.3317C6.14068 18.2824 6.10723 18.225 6.08587 18.1627C6.0645 18.1005 6.05563 18.0346 6.05977 17.969C6.0639 17.9033 6.08097 17.8391 6.10998 17.78C6.44201 17.1301 6.94551 16.5834 7.56598 16.1991C8.18644 15.8149 8.90021 15.6077 9.62998 15.6C10.3632 15.5979 11.0823 15.801 11.7061 16.1862C12.3299 16.5715 12.8335 17.1235 13.16 17.78C13.2183 17.8993 13.2269 18.037 13.1837 18.1626C13.1406 18.2883 13.0493 18.3916 12.93 18.45C12.8106 18.5083 12.673 18.5169 12.5473 18.4738C12.4217 18.4306 12.3183 18.3393 12.26 18.22C12.0184 17.7341 11.6462 17.3252 11.1852 17.039C10.7242 16.7529 10.1926 16.6009 9.64998 16.6V16.6C9.09988 16.5898 8.55829 16.7368 8.08886 17.0237C7.61943 17.3107 7.24167 17.7257 6.99998 18.22C6.96044 18.3034 6.89817 18.3739 6.82033 18.4234C6.74249 18.4729 6.65224 18.4995 6.55998 18.5V18.5Z" />
<path d="M18.16 19.66H15.33C15.1974 19.66 15.0702 19.6073 14.9764 19.5135C14.8827 19.4198 14.83 19.2926 14.83 19.16C14.83 19.0274 14.8827 18.9002 14.9764 18.8064C15.0702 18.7127 15.1974 18.66 15.33 18.66H18.16C18.2162 18.6601 18.2719 18.6486 18.3235 18.6262C18.3751 18.6038 18.4216 18.5711 18.46 18.53C18.5527 18.4408 18.6066 18.3186 18.61 18.19V9.59C18.6227 9.53742 18.6227 9.48257 18.61 9.43C18.5976 9.37409 18.5657 9.32443 18.52 9.29L14.76 5.56C14.7129 5.51753 14.6588 5.48368 14.6 5.46C14.535 5.41439 14.4591 5.38679 14.38 5.38H7.67998C7.5558 5.38123 7.43716 5.43157 7.34998 5.52C7.29586 5.60691 7.26808 5.70763 7.26998 5.81V7.73C7.26998 7.8626 7.2173 7.98978 7.12353 8.08355C7.02976 8.17732 6.90259 8.22999 6.76998 8.22999C6.63737 8.22999 6.51019 8.17732 6.41643 8.08355C6.32266 7.98978 6.26998 7.8626 6.26998 7.73V5.83C6.25829 5.46474 6.38307 5.10824 6.61998 4.83C6.88298 4.55548 7.2404 4.39107 7.61998 4.37H14.4C14.632 4.37956 14.8584 4.44472 15.06 4.56C15.2102 4.62658 15.346 4.72167 15.46 4.84L19.17 8.56C19.3184 8.6899 19.4318 8.85493 19.5 9.04C19.5737 9.20689 19.6112 9.38754 19.61 9.56999V18.2C19.5972 18.5775 19.4397 18.9356 19.17 19.2C19.0419 19.3415 18.8862 19.4552 18.7125 19.5344C18.5388 19.6135 18.3508 19.6562 18.16 19.66Z" />
<path d="M15.29 10.13C15.1247 10.1316 14.9609 10.0975 14.81 10.03C14.6318 9.95794 14.469 9.85275 14.33 9.72001C14.169 9.5645 14.0547 9.36706 14 9.15C13.9296 8.9756 13.8989 8.78774 13.91 8.60001V4.88C13.91 4.7474 13.9627 4.62022 14.0564 4.52645C14.1502 4.43268 14.2774 4.38 14.41 4.38C14.5426 4.38 14.6698 4.43268 14.7635 4.52645C14.8573 4.62022 14.91 4.7474 14.91 4.88V8.63C14.9032 8.68312 14.9032 8.73689 14.91 8.79C14.9189 8.86727 14.9502 8.94024 15 9C15.0593 9.05639 15.1267 9.10358 15.2 9.14001H15.32H19.12C19.2526 9.14001 19.3798 9.19268 19.4735 9.28645C19.5673 9.38022 19.62 9.5074 19.62 9.64001C19.62 9.77261 19.5673 9.89979 19.4735 9.99356C19.3798 10.0873 19.2526 10.14 19.12 10.14H15.29V10.13Z" />
</svg>
