<svg width="24" height="24" viewBox="0 0 24 24" fill="none" xmlns="http://www.w3.org/2000/svg">
<path d="M18 20.38H5.99999C5.84183 20.3751 5.6862 20.3391 5.54204 20.2739C5.39788 20.2087 5.26804 20.1156 5.15999 20C4.93953 19.7827 4.8107 19.4893 4.79999 19.18V4.79998C4.81664 4.4979 4.94495 4.21278 5.15999 3.99998C5.26804 3.88439 5.39788 3.7913 5.54204 3.72609C5.6862 3.66087 5.84183 3.62481 5.99999 3.61998H15.25C15.3922 3.59494 15.5377 3.59494 15.68 3.61998H15.79C15.913 3.68133 16.0273 3.75867 16.13 3.84998L18.81 6.44998C18.9223 6.56093 19.0108 6.69364 19.07 6.83998C19.1367 6.98409 19.1709 7.14116 19.17 7.29998V19.2C19.1634 19.516 19.0343 19.8172 18.81 20.04C18.5927 20.2516 18.3033 20.3731 18 20.38ZM5.99999 4.61998C5.94723 4.62073 5.89691 4.64229 5.85999 4.67998C5.83979 4.69704 5.82385 4.71858 5.81343 4.74288C5.80302 4.76719 5.79841 4.79358 5.79999 4.81998V19.2C5.80071 19.2231 5.80644 19.2459 5.8168 19.2666C5.82716 19.2873 5.8419 19.3055 5.85999 19.32C5.89691 19.3577 5.94723 19.3792 5.99999 19.38H18C18.0527 19.3792 18.1031 19.3577 18.14 19.32C18.1602 19.3029 18.1761 19.2814 18.1865 19.2571C18.197 19.2328 18.2016 19.2064 18.2 19.18V7.33998L18.14 7.21998L15.44 4.62998H5.99999V4.61998Z" />
<path d="M12 16.61C11.3942 16.6113 10.7942 16.493 10.2343 16.2618C9.67436 16.0305 9.16563 15.691 8.73729 15.2627C8.30895 14.8343 7.96943 14.3256 7.73822 13.7657C7.50702 13.2058 7.38868 12.6058 7.38999 12C7.38615 11.0867 7.65545 10.1931 8.16329 9.43399C8.67114 8.67489 9.39434 8.08496 10.24 7.73999C11.0788 7.40155 11.9987 7.31737 12.885 7.49793C13.7714 7.67848 14.585 8.11579 15.2246 8.75539C15.8642 9.39499 16.3015 10.2086 16.4821 11.095C16.6626 11.9813 16.5784 12.9012 16.24 13.74C15.8886 14.5818 15.2974 15.3017 14.54 15.81C13.791 16.3218 12.9071 16.6002 12 16.61V16.61ZM12 15.61C12.7129 15.6127 13.41 15.4001 14 15C14.5959 14.6031 15.0619 14.0397 15.34 13.38C15.5206 12.939 15.6121 12.4666 15.6092 11.99C15.6064 11.5134 15.5092 11.0422 15.3232 10.6034C15.1373 10.1646 14.8663 9.76692 14.5259 9.43337C14.1855 9.09982 13.7825 8.83697 13.34 8.65999C12.9149 8.48321 12.4603 8.38821 12 8.37999C11.4059 8.38544 10.822 8.53586 10.2992 8.81818C9.77641 9.1005 9.33042 9.50617 8.99999 9.99999C8.64191 10.5441 8.43727 11.1747 8.40764 11.8254C8.37802 12.4761 8.52451 13.1227 8.83167 13.6971C9.13883 14.2715 9.59528 14.7524 10.1529 15.0891C10.7105 15.4257 11.3486 15.6057 12 15.61" />
<path d="M14.09 13.4999H11C10.8674 13.4999 10.7402 13.4473 10.6464 13.3535C10.5527 13.2597 10.5 13.1326 10.5 12.9999V9.93994C10.5 9.80733 10.5527 9.68016 10.6464 9.58639C10.7402 9.49262 10.8674 9.43994 11 9.43994C11.1326 9.43994 11.2598 9.49262 11.3536 9.58639C11.4473 9.68016 11.5 9.80733 11.5 9.93994V12.4999H14.09C14.2226 12.4999 14.3498 12.5526 14.4436 12.6464C14.5373 12.7402 14.59 12.8673 14.59 12.9999C14.59 13.1326 14.5373 13.2597 14.4436 13.3535C14.3498 13.4473 14.2226 13.4999 14.09 13.4999Z" />
</svg>
