<svg width="24" height="24" viewBox="0 0 24 24" fill="none" xmlns="http://www.w3.org/2000/svg">
<path fill-rule="evenodd" clip-rule="evenodd" d="M6.66998 5.25C5.42734 5.25 4.41998 6.25736 4.41998 7.5V17.33C4.41998 18.5726 5.42734 19.58 6.66998 19.58H17.34C18.5826 19.58 19.59 18.5726 19.59 17.33V7.5C19.59 6.25736 18.5826 5.25 17.34 5.25H6.66998ZM2.91998 7.5C2.91998 5.42893 4.59892 3.75 6.66998 3.75H17.34C19.4111 3.75 21.09 5.42893 21.09 7.5V17.33C21.09 19.4011 19.4111 21.08 17.34 21.08H6.66998C4.59892 21.08 2.91998 19.4011 2.91998 17.33V7.5Z" />
<path fill-rule="evenodd" clip-rule="evenodd" d="M7.83002 2.07996C8.24423 2.07996 8.58002 2.41574 8.58002 2.82996V4.49996C8.58002 4.91417 8.24423 5.24996 7.83002 5.24996C7.4158 5.24996 7.08002 4.91417 7.08002 4.49996V2.82996C7.08002 2.41574 7.4158 2.07996 7.83002 2.07996Z" />
<path fill-rule="evenodd" clip-rule="evenodd" d="M16.17 2.07996C16.5842 2.07996 16.92 2.41574 16.92 2.82996V4.49996C16.92 4.91417 16.5842 5.24996 16.17 5.24996C15.7558 5.24996 15.42 4.91417 15.42 4.49996V2.82996C15.42 2.41574 15.7558 2.07996 16.17 2.07996Z" />
<path fill-rule="evenodd" clip-rule="evenodd" d="M2.91998 8.67004C2.91998 8.25583 3.25577 7.92004 3.66998 7.92004H20.33C20.7442 7.92004 21.08 8.25583 21.08 8.67004C21.08 9.08426 20.7442 9.42004 20.33 9.42004H3.66998C3.25577 9.42004 2.91998 9.08426 2.91998 8.67004Z" />
<path fill-rule="evenodd" clip-rule="evenodd" d="M6.66998 12.83C6.66998 12.4157 7.00577 12.08 7.41998 12.08H8.24998C8.6642 12.08 8.99998 12.4157 8.99998 12.83C8.99998 13.2442 8.6642 13.58 8.24998 13.58H7.41998C7.00577 13.58 6.66998 13.2442 6.66998 12.83Z" />
<path fill-rule="evenodd" clip-rule="evenodd" d="M10.83 12.83C10.83 12.4157 11.1658 12.08 11.58 12.08H12.42C12.8342 12.08 13.17 12.4157 13.17 12.83C13.17 13.2442 12.8342 13.58 12.42 13.58H11.58C11.1658 13.58 10.83 13.2442 10.83 12.83Z" />
<path fill-rule="evenodd" clip-rule="evenodd" d="M15 12.83C15 12.4157 15.3358 12.08 15.75 12.08H16.58C16.9942 12.08 17.33 12.4157 17.33 12.83C17.33 13.2442 16.9942 13.58 16.58 13.58H15.75C15.3358 13.58 15 13.2442 15 12.83Z" />
<path fill-rule="evenodd" clip-rule="evenodd" d="M6.66998 16.17C6.66998 15.7558 7.00577 15.42 7.41998 15.42H8.24998C8.6642 15.42 8.99998 15.7558 8.99998 16.17C8.99998 16.5843 8.6642 16.92 8.24998 16.92H7.41998C7.00577 16.92 6.66998 16.5843 6.66998 16.17Z" />
<path fill-rule="evenodd" clip-rule="evenodd" d="M10.83 16.17C10.83 15.7558 11.1658 15.42 11.58 15.42H12.42C12.8342 15.42 13.17 15.7558 13.17 16.17C13.17 16.5843 12.8342 16.92 12.42 16.92H11.58C11.1658 16.92 10.83 16.5843 10.83 16.17Z" />
<path fill-rule="evenodd" clip-rule="evenodd" d="M15 16.17C15 15.7558 15.3358 15.42 15.75 15.42H16.58C16.9942 15.42 17.33 15.7558 17.33 16.17C17.33 16.5843 16.9942 16.92 16.58 16.92H15.75C15.3358 16.92 15 16.5843 15 16.17Z" />
</svg>
