<svg width="32" height="32" viewBox="0 0 32 32" fill="none" xmlns="http://www.w3.org/2000/svg">
<path d="M16.0057 30.873C24.2167 30.873 30.873 24.2167 30.873 16.0057C30.873 7.79475 24.2167 1.13843 16.0057 1.13843C7.7947 1.13843 1.13838 7.79475 1.13838 16.0057C1.13838 24.2167 7.7947 30.873 16.0057 30.873Z" fill="white" stroke="#16499C" stroke-width="2" stroke-miterlimit="10"/>
<path d="M8.84524 17.7931C10.153 17.7931 11.2131 16.7329 11.2131 15.4252C11.2131 14.1175 10.153 13.0574 8.84524 13.0574C7.53752 13.0574 6.4774 14.1175 6.4774 15.4252C6.4774 16.7329 7.53752 17.7931 8.84524 17.7931Z" fill="#16499C"/>
<path d="M16.0057 17.7931C17.3134 17.7931 18.3735 16.7329 18.3735 15.4252C18.3735 14.1175 17.3134 13.0574 16.0057 13.0574C14.698 13.0574 13.6378 14.1175 13.6378 15.4252C13.6378 16.7329 14.698 17.7931 16.0057 17.7931Z" fill="#16499C"/>
<path d="M23.1661 17.7931C24.4738 17.7931 25.534 16.7329 25.534 15.4252C25.534 14.1175 24.4738 13.0574 23.1661 13.0574C21.8584 13.0574 20.7983 14.1175 20.7983 15.4252C20.7983 16.7329 21.8584 17.7931 23.1661 17.7931Z" fill="#16499C"/>
</svg>
