<svg width="24" height="24" viewBox="0 0 24 24" fill="none" xmlns="http://www.w3.org/2000/svg">
<circle cx="12" cy="12.0005" r="12" fill="white"/>
<path fill-rule="evenodd" clip-rule="evenodd" d="M6.06697 6.0678C6.45749 5.67727 7.09066 5.67727 7.48118 6.0678L18.707 17.2936C19.0975 17.6841 19.0975 18.3173 18.707 18.7078C18.3165 19.0983 17.6833 19.0983 17.2928 18.7078L6.06697 7.48201C5.67645 7.09148 5.67645 6.45832 6.06697 6.0678Z" fill="#14142B"/>
<path fill-rule="evenodd" clip-rule="evenodd" d="M6.06731 18.7074C5.67678 18.3169 5.67678 17.6838 6.06731 17.2932L17.2931 6.06743C17.6836 5.6769 18.3168 5.6769 18.7073 6.06743C19.0978 6.45795 19.0978 7.09112 18.7073 7.48164L7.48152 18.7074C7.091 19.098 6.45783 19.098 6.06731 18.7074Z" fill="#14142B"/>
</svg>
