<svg width="24" height="24" viewBox="0 0 24 24" fill="none" xmlns="http://www.w3.org/2000/svg">
<path fill-rule="evenodd" clip-rule="evenodd" d="M7.56997 3.13C6.2721 3.13 5.21997 4.18214 5.21997 5.48C5.21997 6.77787 6.2721 7.83 7.56997 7.83C8.86784 7.83 9.91997 6.77787 9.91997 5.48C9.91997 4.18214 8.86784 3.13 7.56997 3.13ZM4.21997 5.48C4.21997 3.62985 5.71982 2.13 7.56997 2.13C9.42013 2.13 10.92 3.62985 10.92 5.48C10.92 7.33016 9.42013 8.83 7.56997 8.83C5.71982 8.83 4.21997 7.33016 4.21997 5.48Z" />
<path fill-rule="evenodd" clip-rule="evenodd" d="M2.20996 14.39C2.20996 11.4346 4.60315 9.03003 7.56996 9.03003C9.99686 9.03003 12.0475 10.6408 12.7091 12.857C12.7881 13.1216 12.6376 13.4002 12.373 13.4791C12.1084 13.5581 11.8298 13.4077 11.7509 13.143C11.2124 11.3392 9.54306 10.03 7.56996 10.03C5.15677 10.03 3.20996 11.9855 3.20996 14.39C3.20996 14.6662 2.9861 14.89 2.70996 14.89C2.43382 14.89 2.20996 14.6662 2.20996 14.39Z" />
<path fill-rule="evenodd" clip-rule="evenodd" d="M16.03 3.14001C15.1905 3.14001 14.51 3.82054 14.51 4.66001C14.51 5.49949 15.1905 6.18001 16.03 6.18001C16.8695 6.18001 17.55 5.49949 17.55 4.66001C17.55 3.82054 16.8695 3.14001 16.03 3.14001ZM13.51 4.66001C13.51 3.26826 14.6383 2.14001 16.03 2.14001C17.4218 2.14001 18.55 3.26826 18.55 4.66001C18.55 6.05177 17.4218 7.18001 16.03 7.18001C14.6383 7.18001 13.51 6.05177 13.51 4.66001Z" />
<path fill-rule="evenodd" clip-rule="evenodd" d="M16.03 8.03003C14.6961 8.03003 13.5584 8.91975 13.1997 10.1409C13.1219 10.4059 12.844 10.5576 12.5791 10.4798C12.3141 10.4019 12.1624 10.1241 12.2402 9.85913C12.7216 8.22031 14.2439 7.03003 16.03 7.03003C18.2171 7.03003 19.98 8.80483 19.98 10.98C19.98 11.2562 19.7561 11.48 19.48 11.48C19.2038 11.48 18.98 11.2562 18.98 10.98C18.98 9.35523 17.6629 8.03003 16.03 8.03003Z" />
<path fill-rule="evenodd" clip-rule="evenodd" d="M15.5933 12.7223C15.7073 12.6793 15.833 12.6793 15.947 12.7224L21.707 14.9024C21.9011 14.9759 22.0297 15.1617 22.03 15.3693C22.0303 15.5769 21.9023 15.7631 21.7084 15.8372L15.9484 18.0372C15.8336 18.081 15.7067 18.081 15.5919 18.0373L9.82187 15.8373C9.6278 15.7633 9.49969 15.577 9.5 15.3693C9.50032 15.1616 9.62899 14.9757 9.82328 14.9023L15.5933 12.7223ZM11.409 15.3722L15.7698 17.0349L20.1231 15.3722L15.7698 13.7246L11.409 15.3722Z" />
<path fill-rule="evenodd" clip-rule="evenodd" d="M12.02 19.3901V16.1001H13.02V19.3901C13.02 19.4497 13.0535 19.5259 13.1507 19.5765L13.1533 19.5778L15.8817 21.017C15.9866 21.0711 16.1134 21.0711 16.2183 21.017L18.9493 19.5765C19.0466 19.5259 19.08 19.4497 19.08 19.3901V16.1001H20.08V19.3901C20.08 19.85 19.8141 20.2532 19.4122 20.4629L16.6807 21.9037C16.2861 22.1089 15.8139 22.1089 15.4193 21.9037L15.4167 21.9024L12.6878 20.4629C12.2859 20.2533 12.02 19.85 12.02 19.3901Z" />
<path fill-rule="evenodd" clip-rule="evenodd" d="M10 14.8701C10.2761 14.8701 10.5 15.094 10.5 15.3701V18.4101C10.5 18.6863 10.2761 18.9101 10 18.9101C9.72386 18.9101 9.5 18.6863 9.5 18.4101V15.3701C9.5 15.094 9.72386 14.8701 10 14.8701Z" />
</svg>
