<svg width="32" height="32" viewBox="0 0 32 32" fill="none" xmlns="http://www.w3.org/2000/svg">
<path d="M9.84998 10.91C12.0205 10.91 13.78 9.15053 13.78 6.98005C13.78 4.80957 12.0205 3.05005 9.84998 3.05005C7.6795 3.05005 5.91998 4.80957 5.91998 6.98005C5.91998 9.15053 7.6795 10.91 9.84998 10.91Z" stroke="#16499C" stroke-width="2" stroke-miterlimit="10"/>
<path d="M16.27 17.34C15.8096 15.7978 14.8095 14.4729 13.4525 13.6076C12.0955 12.7422 10.4723 12.3942 8.87987 12.6273C7.2874 12.8603 5.83203 13.6588 4.77991 14.8767C3.72779 16.0946 3.14922 17.6506 3.15003 19.26" stroke="#16499C" stroke-width="2" stroke-linecap="round" stroke-linejoin="round"/>
<path d="M21.51 9.62995C23.0453 9.62995 24.29 8.3853 24.29 6.84995C24.29 5.31459 23.0453 4.06995 21.51 4.06995C19.9746 4.06995 18.73 5.31459 18.73 6.84995C18.73 8.3853 19.9746 9.62995 21.51 9.62995Z" stroke="#16499C" stroke-width="2" stroke-miterlimit="10"/>
<path d="M17 13.21C17.3206 12.1106 18.0276 11.1641 18.9907 10.5447C19.9539 9.92525 21.1084 9.67464 22.2417 9.83897C23.375 10.0033 24.4108 10.5715 25.1583 11.439C25.9059 12.3065 26.3149 13.4148 26.31 14.56" stroke="#16499C" stroke-width="2" stroke-linecap="round" stroke-linejoin="round"/>
<path d="M21.24 23.64L16.67 21.86V26.15C16.6742 26.3312 16.7276 26.5079 16.8245 26.6612C16.9213 26.8144 17.0581 26.9384 17.22 27.02L21 29C21.1716 29.0886 21.3619 29.1348 21.555 29.1348C21.7481 29.1348 21.9384 29.0886 22.11 29L25.87 27C26.0319 26.9184 26.1686 26.7944 26.2655 26.6412C26.3624 26.4879 26.4158 26.3112 26.42 26.13V21.61L21.24 23.64Z" fill="#94CAFF" stroke="#16499C" stroke-width="2" stroke-miterlimit="10"/>
<path d="M21.15 17.6L13.2 20.61L21.15 23.64L29.09 20.61L21.15 17.6Z" fill="#FFAD5C" stroke="#16499C" stroke-width="2" stroke-linecap="round" stroke-linejoin="round"/>
<path d="M16.67 21.61V26.15C16.6742 26.3312 16.7276 26.5079 16.8245 26.6612C16.9213 26.8144 17.0581 26.9384 17.22 27.02L21 29C21.1716 29.0886 21.3619 29.1348 21.555 29.1348C21.7481 29.1348 21.9384 29.0886 22.11 29L25.87 27C26.0319 26.9184 26.1686 26.7944 26.2655 26.6412C26.3624 26.4879 26.4158 26.3112 26.42 26.13V21.61" stroke="#16499C" stroke-width="2" stroke-miterlimit="10"/>
<path d="M13.2 20.61V24.8" stroke="#16499C" stroke-width="2" stroke-linecap="round" stroke-linejoin="round"/>
</svg>
