<svg width="24" height="24" viewBox="0 0 24 24" fill="none" xmlns="http://www.w3.org/2000/svg">
    <path fill-rule="evenodd" clip-rule="evenodd" d="M6.46893 3.69318C7.9395 2.28655 9.92945 1.5 12 1.5C14.0705 1.5 16.0605 2.28655 17.5311 3.69318C19.0024 5.10053 19.8333 7.01417 19.8333 9.01449C19.8333 14.7876 22.2111 17.5116 23.456 18.5492C23.7709 18.8116 23.7663 19.2086 23.6914 19.4476C23.6172 19.6845 23.3835 20.0362 22.9429 20.0362H16.6497C16.4953 20.4833 16.1612 21.2622 15.526 21.9697C14.7929 22.7865 13.6633 23.5 12 23.5C10.3367 23.5 9.20712 22.7865 8.47398 21.9697C7.83882 21.2622 7.50465 20.4833 7.35032 20.0362H1.05705C0.616435 20.0362 0.382791 19.6845 0.308566 19.4476C0.233714 19.2086 0.229106 18.8116 0.54393 18.5492C1.78887 17.5116 4.16666 14.7876 4.16666 9.01449C4.16666 7.01417 4.99761 5.10053 6.46893 3.69318ZM12 2.5C10.1807 2.5 8.44012 3.1915 7.16015 4.41582C5.88094 5.63941 5.16666 7.2941 5.16666 9.01449C5.16666 14.6825 2.97908 17.6714 1.50405 19.0362H7.52212C7.87067 19.0362 8.15751 19.2703 8.25298 19.5797C8.35428 19.9081 8.63283 20.6497 9.21813 21.3017C9.79107 21.94 10.6619 22.5 12 22.5C13.338 22.5 14.2089 21.94 14.7818 21.3017C15.3671 20.6497 15.6457 19.9081 15.747 19.5797C15.8425 19.2703 16.1293 19.0362 16.4779 19.0362H22.4959C21.0209 17.6714 18.8333 14.6825 18.8333 9.01449C18.8333 7.2941 18.119 5.63941 16.8398 4.41582C15.5599 3.1915 13.8193 2.5 12 2.5Z" />
</svg>
