<svg width="24" height="24" viewBox="0 0 24 24" fill="none" xmlns="http://www.w3.org/2000/svg">
<path fill-rule="evenodd" clip-rule="evenodd" d="M8.86128 4.69864C8.0291 5.78024 7.5 7.29579 7.5 8.98999C7.5 10.556 7.95325 11.9662 8.67265 13.0176C8.82859 13.2456 8.77024 13.5567 8.54234 13.7126C8.31444 13.8686 8.00328 13.8102 7.84735 13.5823C7.00675 12.3538 6.5 10.744 6.5 8.98999C6.5 7.09419 7.0909 5.35974 8.06872 4.08884C9.04692 2.81745 10.4327 1.98999 12 1.98999C13.5673 1.98999 14.9531 2.81745 15.9313 4.08884C16.9091 5.35974 17.5 7.09419 17.5 8.98999C17.5 10.1409 17.2888 11.2259 16.8924 12.1901C16.7874 12.4455 16.4953 12.5674 16.2399 12.4624C15.9845 12.3574 15.8626 12.0653 15.9676 11.8099C16.3112 10.974 16.5 10.0191 16.5 8.98999C16.5 7.29579 15.9709 5.78024 15.1387 4.69864C14.3069 3.61753 13.1927 2.98999 12 2.98999C10.8073 2.98999 9.69308 3.61753 8.86128 4.69864Z" />
<path fill-rule="evenodd" clip-rule="evenodd" d="M13.8087 14.6948C12.606 14.5216 11.394 14.5216 10.1913 14.6948L6.78112 15.1849C5.74069 15.3323 5 16.1758 5 17.1399V21.0399H19V17.1399C19 16.1758 18.2603 15.3325 17.2198 15.185L13.8087 14.6948ZM13.9511 13.705C12.6539 13.5182 11.346 13.5182 10.0489 13.705C10.0489 13.705 10.0488 13.705 10.0489 13.705L6.63984 14.1949C6.64 14.1949 6.63967 14.1949 6.63984 14.1949C5.14051 14.4076 4 15.6443 4 17.1399V22.0399H20V17.1399C20 15.6443 18.86 14.4077 17.3607 14.195C17.3609 14.195 17.3605 14.1949 17.3607 14.195L13.9511 13.705C13.9511 13.705 13.9512 13.705 13.9511 13.705Z" />
<path fill-rule="evenodd" clip-rule="evenodd" d="M7.85 18.03C7.72615 18.03 7.63 18.1262 7.63 18.25V21.04H16.38V18.25C16.38 18.1262 16.2839 18.03 16.16 18.03H7.85ZM6.63 18.25C6.63 17.5739 7.17386 17.03 7.85 17.03H16.16C16.8361 17.03 17.38 17.5739 17.38 18.25V22.04H6.63V18.25Z" />
<path fill-rule="evenodd" clip-rule="evenodd" d="M8.28003 13.97C8.55617 13.97 8.78003 14.1938 8.78003 14.47V17.53C8.78003 17.8061 8.55617 18.03 8.28003 18.03C8.00389 18.03 7.78003 17.8061 7.78003 17.53V14.47C7.78003 14.1938 8.00389 13.97 8.28003 13.97Z" />
<path fill-rule="evenodd" clip-rule="evenodd" d="M15.65 13.97C15.9262 13.97 16.15 14.1938 16.15 14.47V17.53C16.15 17.8061 15.9262 18.03 15.65 18.03C15.3739 18.03 15.15 17.8061 15.15 17.53V14.47C15.15 14.1938 15.3739 13.97 15.65 13.97Z" />
<path fill-rule="evenodd" clip-rule="evenodd" d="M12 5.55005C11.2714 5.55005 10.5039 6.1933 10.1262 7.37257L10.1244 7.37817L10.1244 7.37816C9.98337 7.80118 9.91003 8.27707 9.91003 8.79005C9.91003 9.73093 10.1758 10.5639 10.58 11.1481C10.9856 11.7344 11.496 12.03 12 12.03C12.5056 12.03 13.0186 11.7351 13.4261 11.1504C13.8321 10.5678 14.1 9.73539 14.1 8.79005C14.1 7.58443 13.6652 6.57235 13.0824 6.03884L13.0754 6.03239L13.0754 6.03233C12.7363 5.70971 12.3742 5.55005 12 5.55005ZM9.17476 7.06473C9.61753 5.68526 10.6496 4.55005 12 4.55005C12.6843 4.55005 13.2809 4.84895 13.7612 5.3045C14.5963 6.07144 15.1 7.37766 15.1 8.79005C15.1 9.91471 14.783 10.9523 14.2465 11.7222C13.7115 12.49 12.9244 13.03 12 13.03C11.074 13.03 10.2894 12.4857 9.75761 11.717C9.22427 10.9462 8.91003 9.90916 8.91003 8.79005C8.91003 8.18408 8.9964 7.60095 9.17476 7.06473Z" />
<path fill-rule="evenodd" clip-rule="evenodd" d="M12.8308 5.82741C12.5664 5.64156 12.2872 5.55459 12.0096 5.55993L12 5.56011V5.56002C11.3395 5.56002 10.6471 6.0886 10.242 7.06587C10.5082 7.24792 10.7859 7.34002 11.07 7.34002C11.732 7.34002 12.4261 6.80901 12.8308 5.82741ZM11.9952 4.56003C12.67 4.54848 13.2823 4.83715 13.7692 5.31213L13.9905 5.52807L13.8962 5.82254C13.4539 7.20327 12.4214 8.34002 11.07 8.34002C10.3851 8.34002 9.78901 8.04059 9.31012 7.59674L9.07678 7.38048L9.17383 7.0775C9.61557 5.6984 10.6462 4.56271 11.9952 4.56003Z" />
</svg>
