<svg width="31" height="30" viewBox="0 0 31 30" fill="none" xmlns="http://www.w3.org/2000/svg">
<g clip-path="url(#clip0)">
<path d="M2.37976 29.5813L0.430055 14.1516C0.335151 13.3959 0.879667 12.7778 1.64128 12.7778H18.0752L2.37976 29.5813Z" fill="#B7D2FF"/>
<path fill-rule="evenodd" clip-rule="evenodd" d="M2.79558 29.529L0.845282 14.0992C0.782408 13.6027 1.14067 13.1964 1.6407 13.1964H9.69813C9.92947 13.1964 10.1169 13.009 10.1169 12.7777C10.1169 12.5463 9.92947 12.3589 9.69813 12.3589H1.6413C0.618697 12.3589 -0.113258 13.1887 0.0148639 14.2042L1.96457 29.634C1.99304 29.8629 2.20302 30.026 2.43257 29.997C2.66153 29.9673 2.82405 29.7579 2.79558 29.529Z" fill="#49508F"/>
<path d="M18.8155 8.52594H16.9091C16.9649 8.75016 16.9969 8.98564 16.9969 9.22943V11.7859C16.9969 13.2522 15.9174 14.4527 14.597 14.4527C13.2772 14.4527 12.1971 13.2528 12.1971 11.7859V9.22943C12.1971 8.98564 12.2297 8.75016 12.2855 8.52594H10.3791C8.9122 8.52594 8.42285 7.5591 9.29123 6.37694L13.018 1.30487C13.8864 0.12331 15.3082 0.12331 16.1766 1.30487L19.904 6.37694C20.7717 7.5591 20.2824 8.52594 18.8155 8.52594Z" fill="#16499C"/>
<path fill-rule="evenodd" clip-rule="evenodd" d="M11.7914 8.94464H10.3791C9.44012 8.94464 8.83807 8.58222 8.58598 8.08397C8.33389 7.58513 8.39795 6.8858 8.95373 6.12893L10.0718 4.60689C10.2088 4.42064 10.471 4.3809 10.6573 4.51733C10.8435 4.65435 10.8839 4.91652 10.7468 5.10277L9.62874 6.62421C9.31556 7.05069 9.19099 7.42438 9.33276 7.70494C9.47512 7.9855 9.84999 8.10651 10.3791 8.10651H12.2855C12.4142 8.10651 12.5358 8.16582 12.6153 8.26725C12.6948 8.36868 12.7232 8.50096 12.6918 8.62611C12.6437 8.81829 12.6159 9.01997 12.6159 9.22876V11.7853C12.6159 13.0101 13.4943 14.0333 14.597 14.0333C15.6997 14.0333 16.5781 13.0101 16.5781 11.7853C16.5781 11.5545 16.7656 11.3665 16.9969 11.3665C17.2282 11.3665 17.4157 11.5545 17.4157 11.7853C17.4157 13.4935 16.1351 14.8703 14.597 14.8703C13.0596 14.8703 11.7783 13.4935 11.7783 11.7853V9.22876C11.7783 9.13326 11.7831 9.03836 11.7914 8.94464Z" fill="#00225A"/>
<path fill-rule="evenodd" clip-rule="evenodd" d="M13.3555 1.55347C13.6989 1.08547 14.1444 0.837535 14.5975 0.837535C15.0507 0.837535 15.4956 1.08547 15.839 1.55347L19.5664 6.62554C19.8796 7.05202 20.0042 7.42571 19.8618 7.70627C19.7194 7.98683 19.3446 8.10784 18.8161 8.10784C18.5847 8.10784 18.3973 8.29527 18.3973 8.5266C18.3973 8.75734 18.5847 8.94537 18.8161 8.94537C19.755 8.94537 20.3571 8.58295 20.6092 8.0847C20.8613 7.58586 20.7972 6.88653 20.2414 6.12966L16.5134 1.0576C15.9891 0.342844 15.2892 0 14.597 0C13.9047 0 13.2054 0.342844 12.6799 1.0576C12.5429 1.24385 12.5832 1.50602 12.7694 1.64304C12.9563 1.77947 13.2185 1.73972 13.3555 1.55347Z" fill="#00225A"/>
<path d="M2.37976 29.5812H27.0307L30.1697 11.7622H18.214C17.4524 11.7622 16.4553 12.261 15.998 12.8702L13.782 15.8247H6.90375C6.14214 15.8247 5.37994 16.4321 5.21089 17.1747L2.37976 29.5812Z" fill="white"/>
<path fill-rule="evenodd" clip-rule="evenodd" d="M13.782 15.406H6.90382C5.95833 15.406 5.01284 16.1599 4.80227 17.0817L3.48784 22.8442C3.43624 23.0696 3.578 23.2944 3.80281 23.3454C4.02821 23.397 4.25301 23.2558 4.30402 23.0304L5.61905 17.2673C5.74776 16.7038 6.32609 16.2429 6.90382 16.2429H13.782C14.0128 16.2429 14.2008 16.0549 14.2008 15.8242C14.2008 15.5934 14.0134 15.406 13.782 15.406Z" fill="#49508F"/>
<path fill-rule="evenodd" clip-rule="evenodd" d="M29.6715 12.181H18.2141C17.9828 12.181 17.7954 11.9936 17.7954 11.7623C17.7954 11.5309 17.9828 11.3435 18.2141 11.3435H30.1704C30.2943 11.3435 30.4118 11.3981 30.4913 11.493C30.5707 11.5879 30.6045 11.713 30.5826 11.8346L27.4436 29.653C27.408 29.8529 27.2342 29.9994 27.0308 29.9994H2.37983C2.1485 29.9994 1.96106 29.8114 1.96106 29.5807C1.96106 29.3493 2.1485 29.1619 2.37983 29.1619H26.6796L29.6715 12.181Z" fill="#49508F"/>
<path d="M18.7681 27.9191L19.4408 24.1003H26.3184L25.6458 27.9191H18.7681Z" fill="#B7D2FF"/>
</g>
<defs>
<clipPath id="clip0">
<rect width="30.5884" height="30" fill="white"/>
</clipPath>
</defs>
</svg>
