<svg width="20" height="20" viewBox="0 0 20 20" fill="none" xmlns="http://www.w3.org/2000/svg">
<path fill-rule="evenodd" clip-rule="evenodd" d="M4.1665 4.79167H15.8332C16.206 4.78905 16.565 4.93265 16.8332 5.19167L10.6415 10.3417C10.4529 10.5052 10.2156 10.6018 9.9665 10.6167C9.72451 10.5928 9.4952 10.4971 9.30817 10.3417L3.13317 5.225C3.26805 5.08783 3.42888 4.97888 3.60629 4.90448C3.78369 4.83009 3.97413 4.79174 4.1665 4.79167V4.79167ZM2.70817 6.225V13.725C2.70485 13.9186 2.74012 14.1109 2.81192 14.2908C2.88372 14.4706 2.99062 14.6343 3.12637 14.7724C3.26212 14.9105 3.42401 15.0201 3.60259 15.095C3.78117 15.1698 3.97287 15.2084 4.1665 15.2083H15.8332C16.2199 15.2083 16.5909 15.0547 16.8644 14.7812C17.1379 14.5077 17.2915 14.1368 17.2915 13.75V6.16667L11.2915 11.1667C10.915 11.4758 10.4453 11.649 9.95817 11.6583C9.49176 11.6339 9.04521 11.4617 8.68317 11.1667V11.1667L2.70817 6.225ZM1.6665 6.25C1.6665 5.58696 1.9299 4.95107 2.39874 4.48223C2.86758 4.01339 3.50346 3.75 4.1665 3.75H15.8332C16.4962 3.75 17.1321 4.01339 17.6009 4.48223C18.0698 4.95107 18.3332 5.58696 18.3332 6.25V13.75C18.3332 14.413 18.0698 15.0489 17.6009 15.5178C17.1321 15.9866 16.4962 16.25 15.8332 16.25H4.1665C3.50346 16.25 2.86758 15.9866 2.39874 15.5178C1.9299 15.0489 1.6665 14.413 1.6665 13.75V6.25Z" fill="#8C8C8C"/>
</svg>
