<svg width="20" height="20" viewBox="0 0 20 20" fill="none" xmlns="http://www.w3.org/2000/svg">
<path fill-rule="evenodd" clip-rule="evenodd" d="M6.25 4.41634C5.89679 4.41634 5.58333 4.72979 5.58333 5.08301V16.9163C5.58333 17.2696 5.89679 17.583 6.25 17.583H13.75C14.1032 17.583 14.4167 17.2696 14.4167 16.9163V5.08301C14.4167 4.72979 14.1032 4.41634 13.75 4.41634H13.3333C13.1032 4.41634 12.9167 4.22979 12.9167 3.99967C12.9167 3.76956 13.1032 3.58301 13.3333 3.58301H13.75C14.5635 3.58301 15.25 4.26956 15.25 5.08301V16.9163C15.25 17.7298 14.5635 18.4163 13.75 18.4163H6.25C5.43655 18.4163 4.75 17.7298 4.75 16.9163V5.08301C4.75 4.26956 5.43655 3.58301 6.25 3.58301H6.66667C6.89679 3.58301 7.08333 3.76956 7.08333 3.99967C7.08333 4.22979 6.89679 4.41634 6.66667 4.41634H6.25Z" fill="#8C8C8C"/>
<path fill-rule="evenodd" clip-rule="evenodd" d="M7.5 16.6667C7.5 16.4365 7.68655 16.25 7.91667 16.25H12.0833C12.3135 16.25 12.5 16.4365 12.5 16.6667C12.5 16.8968 12.3135 17.0833 12.0833 17.0833H7.91667C7.68655 17.0833 7.5 16.8968 7.5 16.6667Z" fill="#8C8C8C"/>
<path fill-rule="evenodd" clip-rule="evenodd" d="M9.99935 5.25033C9.86128 5.25033 9.74935 5.36225 9.74935 5.50033C9.74935 5.6384 9.86128 5.75033 9.99935 5.75033C10.1374 5.75033 10.2493 5.6384 10.2493 5.50033C10.2493 5.36225 10.1374 5.25033 9.99935 5.25033ZM8.91602 5.50033C8.91602 4.90202 9.40104 4.41699 9.99935 4.41699C10.5977 4.41699 11.0827 4.90202 11.0827 5.50033C11.0827 6.09863 10.5977 6.58366 9.99935 6.58366C9.40104 6.58366 8.91602 6.09863 8.91602 5.50033Z" fill="#8C8C8C"/>
<path fill-rule="evenodd" clip-rule="evenodd" d="M10.0007 1.5C10.2308 1.5 10.4173 1.68655 10.4173 1.91667V3.41667C10.4173 3.64679 10.2308 3.83333 10.0007 3.83333C9.77053 3.83333 9.58398 3.64679 9.58398 3.41667V1.91667C9.58398 1.68655 9.77053 1.5 10.0007 1.5Z" fill="#8C8C8C"/>
<path fill-rule="evenodd" clip-rule="evenodd" d="M7.11134 2.63315C7.26792 2.46452 7.53156 2.45475 7.70019 2.61134L8.86686 3.69467C9.03549 3.85126 9.04525 4.11489 8.88867 4.28352C8.73208 4.45215 8.46844 4.46192 8.29981 4.30533L7.13315 3.222C6.96452 3.06541 6.95475 2.80178 7.11134 2.63315Z" fill="#8C8C8C"/>
<path fill-rule="evenodd" clip-rule="evenodd" d="M6 5.49967C6 5.26956 6.18655 5.08301 6.41667 5.08301H8C8.23012 5.08301 8.41667 5.26956 8.41667 5.49967C8.41667 5.72979 8.23012 5.91634 8 5.91634H6.41667C6.18655 5.91634 6 5.72979 6 5.49967Z" fill="#8C8C8C"/>
<path fill-rule="evenodd" clip-rule="evenodd" d="M11.584 5.49967C11.584 5.26956 11.7705 5.08301 12.0007 5.08301H13.584C13.8141 5.08301 14.0007 5.26956 14.0007 5.49967C14.0007 5.72979 13.8141 5.91634 13.584 5.91634H12.0007C11.7705 5.91634 11.584 5.72979 11.584 5.49967Z" fill="#8C8C8C"/>
<path fill-rule="evenodd" clip-rule="evenodd" d="M12.8887 2.63315C13.0452 2.80178 13.0355 3.06541 12.8669 3.222L11.7002 4.30533C11.5316 4.46192 11.2679 4.45215 11.1113 4.28352C10.9548 4.11489 10.9645 3.85126 11.1331 3.69467L12.2998 2.61134C12.4684 2.45475 12.7321 2.46452 12.8887 2.63315Z" fill="#8C8C8C"/>
</svg>
