<svg width="32" height="32" viewBox="0 0 32 32" fill="none" xmlns="http://www.w3.org/2000/svg">
<path d="M21.66 29.08H10.34V16.35C10.34 15.6072 10.4865 14.8716 10.7711 14.1855C11.0556 13.4993 11.4727 12.876 11.9984 12.3513C12.5241 11.8265 13.1481 11.4105 13.8348 11.1272C14.5214 10.8438 15.2572 10.6986 16 10.7C16.7428 10.6986 17.4786 10.8438 18.1653 11.1272C18.8519 11.4105 19.4759 11.8265 20.0016 12.3513C20.5274 12.876 20.9444 13.4993 21.229 14.1855C21.5136 14.8716 21.66 15.6072 21.66 16.35V29.08Z" fill="#94CAFF" stroke="#16499C" stroke-width="2" stroke-miterlimit="10"/>
<path d="M10.34 29.08H3.99998C3.90721 29.0813 3.81511 29.0642 3.72903 29.0296C3.64294 28.995 3.56459 28.9437 3.49853 28.8786C3.43246 28.8134 3.38 28.7358 3.3442 28.6502C3.3084 28.5646 3.28997 28.4728 3.28998 28.38V19.18C3.28998 18.8061 3.43853 18.4474 3.70296 18.183C3.96738 17.9186 4.32602 17.77 4.69998 17.77H10.36L10.34 29.08Z" stroke="#16499C" stroke-width="2" stroke-miterlimit="10"/>
<path d="M28 29.08H21.66V17.77H27.32C27.6939 17.77 28.0526 17.9186 28.317 18.183C28.5814 18.4474 28.73 18.8061 28.73 19.18V28.38C28.7301 28.4745 28.711 28.5681 28.674 28.655C28.6369 28.742 28.5827 28.8205 28.5145 28.8859C28.4462 28.9513 28.3655 29.0022 28.2771 29.0356C28.1887 29.069 28.0944 29.0841 28 29.08V29.08Z" stroke="#16499C" stroke-width="2" stroke-miterlimit="10"/>
<path d="M16 7.23999V10.7" stroke="#16499C" stroke-width="2" stroke-miterlimit="10"/>
<path d="M21.23 7.24004H16V3.77004C16 3.54461 16.0896 3.32841 16.249 3.169C16.4084 3.0096 16.6246 2.92004 16.85 2.92004H21.23C21.4554 2.92004 21.6716 3.0096 21.831 3.169C21.9904 3.32841 22.08 3.54461 22.08 3.77004V6.41004C22.08 6.52074 22.0579 6.63033 22.015 6.73236C21.972 6.83439 21.9091 6.92679 21.8299 7.00413C21.7507 7.08147 21.6568 7.14218 21.5538 7.1827C21.4508 7.22321 21.3407 7.24271 21.23 7.24004Z" fill="#FFAD5C" stroke="#16499C" stroke-width="2" stroke-miterlimit="10"/>
<path d="M18.23 29.08H13.77V24.25C13.7687 23.9558 13.8253 23.6643 13.9367 23.392C14.048 23.1198 14.2119 22.8721 14.419 22.6631C14.6261 22.4542 14.8723 22.2881 15.1435 22.1743C15.4148 22.0605 15.7058 22.0013 16 22C16.5923 22.0026 17.1595 22.2398 17.5774 22.6596C17.9954 23.0794 18.23 23.6476 18.23 24.24V29.08Z" fill="white" stroke="#16499C" stroke-width="2" stroke-miterlimit="10"/>
<path d="M5.88 22.01H7.66" stroke="#16499C" stroke-width="2" stroke-linecap="round" stroke-linejoin="round"/>
<path d="M5.88 25.36H7.66" stroke="#16499C" stroke-width="2" stroke-linecap="round" stroke-linejoin="round"/>
<path d="M24.31 22.01H26.08" stroke="#16499C" stroke-width="2" stroke-linecap="round" stroke-linejoin="round"/>
<path d="M24.31 25.36H26.08" stroke="#16499C" stroke-width="2" stroke-linecap="round" stroke-linejoin="round"/>
<path d="M16 18.58C17.2316 18.58 18.23 17.5816 18.23 16.35C18.23 15.1184 17.2316 14.12 16 14.12C14.7684 14.12 13.77 15.1184 13.77 16.35C13.77 17.5816 14.7684 18.58 16 18.58Z" fill="#FFAD5C" stroke="#16499C" stroke-width="2" stroke-miterlimit="10"/>
</svg>
