<svg width="24" height="24" viewBox="0 0 24 24" fill="none" xmlns="http://www.w3.org/2000/svg">
<path fill-rule="evenodd" clip-rule="evenodd" d="M16.25 4.05006C14.4111 3.07439 12.2929 2.76018 10.25 3.16006C8.20456 3.56552 6.36338 4.66866 5.04105 6.281C3.71871 7.89334 2.99727 9.91482 3 12.0001C3 12.1327 2.94732 12.2598 2.85355 12.3536C2.75979 12.4474 2.63261 12.5001 2.5 12.5001C2.36739 12.5001 2.24022 12.4474 2.14645 12.3536C2.05268 12.2598 2 12.1327 2 12.0001C1.99951 9.68709 2.80083 7.44546 4.26748 5.65695C5.73413 3.86844 7.77542 2.64365 10.0437 2.19116C12.312 1.73868 14.667 2.08648 16.7076 3.17534C18.7483 4.2642 20.3484 6.02678 21.2354 8.1629C22.1224 10.299 22.2415 12.6766 21.5725 14.8907C20.9034 17.1048 19.4875 19.0184 17.5659 20.3058C15.6443 21.5932 13.3359 22.1746 11.0337 21.9511C8.73156 21.7276 6.57807 20.713 4.94 19.0801C4.84717 18.9872 4.79503 18.8613 4.79503 18.7301C4.79503 18.5988 4.84717 18.4729 4.94 18.3801C5.03283 18.2872 5.15872 18.2351 5.29 18.2351C5.42128 18.2351 5.54717 18.2872 5.64 18.3801C7.11322 19.8499 9.0503 20.7639 11.1215 20.9662C13.1928 21.1686 15.2701 20.647 17 19.4901C18.2973 18.627 19.3483 17.442 20.0501 16.051C20.752 14.6599 21.0807 13.1105 21.0041 11.5543C20.9275 9.99804 20.4482 8.48837 19.6131 7.17297C18.778 5.85757 17.6157 4.7815 16.24 4.05006H16.25Z" />
<path d="M2.49002 14L4.66002 12H0.330017L2.49002 14Z" />
<path fill-rule="evenodd" clip-rule="evenodd" d="M12 6.5C12.1326 6.5 12.2598 6.55268 12.3535 6.64645C12.4473 6.74021 12.5 6.86739 12.5 7V11.79L17.35 16.65C17.4428 16.7428 17.4949 16.8687 17.4949 17C17.4949 17.1313 17.4428 17.2572 17.35 17.35C17.2571 17.4428 17.1312 17.495 17 17.495C16.8687 17.495 16.7428 17.4428 16.65 17.35L11.65 12.35C11.6019 12.3054 11.5638 12.2511 11.5379 12.1909C11.5121 12.1306 11.4992 12.0656 11.5 12V7C11.5 6.86739 11.5527 6.74021 11.6464 6.64645C11.7402 6.55268 11.8674 6.5 12 6.5Z" />
</svg>
