<svg width="24" height="24" viewBox="0 0 24 24" fill="none" xmlns="http://www.w3.org/2000/svg">
<path fill-rule="evenodd" clip-rule="evenodd" d="M3.95984 3.95984C4.25427 3.66541 4.65361 3.5 5.07 3.5H18.93C19.3464 3.5 19.7457 3.66541 20.0402 3.95984C20.3346 4.25427 20.5 4.65361 20.5 5.07V18.93C20.5 19.3464 20.3346 19.7457 20.0402 20.0402C19.7457 20.3346 19.3464 20.5 18.93 20.5H5.07C4.65361 20.5 4.25427 20.3346 3.95984 20.0402C3.66541 19.7457 3.5 19.3464 3.5 18.93V5.07C3.5 4.65361 3.66541 4.25427 3.95984 3.95984ZM18.93 4.5H5.07C4.91883 4.5 4.77385 4.56005 4.66695 4.66695C4.56005 4.77385 4.5 4.91883 4.5 5.07V18.93C4.5 19.0812 4.56005 19.2262 4.66695 19.333C4.77385 19.4399 4.91883 19.5 5.07 19.5H18.93C19.0812 19.5 19.2262 19.4399 19.333 19.333C19.4399 19.2262 19.5 19.0812 19.5 18.93V5.07C19.5 4.91883 19.4399 4.77385 19.333 4.66695C19.2262 4.56005 19.0812 4.5 18.93 4.5Z" />
<path fill-rule="evenodd" clip-rule="evenodd" d="M5.88 8.87C5.88 8.59385 6.10386 8.37 6.38 8.37H8.88C9.15615 8.37 9.38 8.59385 9.38 8.87V18.25C9.38 18.5261 9.15615 18.75 8.88 18.75H6.38C6.10386 18.75 5.88 18.5261 5.88 18.25V8.87ZM6.88 9.37V17.75H8.38V9.37H6.88Z" />
<path fill-rule="evenodd" clip-rule="evenodd" d="M10.25 6.37C10.25 6.09385 10.4739 5.87 10.75 5.87H13.88C14.1561 5.87 14.38 6.09385 14.38 6.37V18.25C14.38 18.5261 14.1561 18.75 13.88 18.75H10.75C10.4739 18.75 10.25 18.5261 10.25 18.25V6.37ZM11.25 6.87V17.75H13.38V6.87H11.25Z" />
<path fill-rule="evenodd" clip-rule="evenodd" d="M15.25 12C15.25 11.7239 15.4739 11.5 15.75 11.5H18.25C18.5261 11.5 18.75 11.7239 18.75 12V18.25C18.75 18.5261 18.5261 18.75 18.25 18.75H15.75C15.4739 18.75 15.25 18.5261 15.25 18.25V12ZM16.25 12.5V17.75H17.75V12.5H16.25Z" />
</svg>
