<svg width="24" height="24" viewBox="0 0 24 24" fill="none" xmlns="http://www.w3.org/2000/svg">
<path fill-rule="evenodd" clip-rule="evenodd" d="M5.73 3.5C5.13857 3.5 4.57136 3.73495 4.15315 4.15315C3.73495 4.57136 3.5 5.13857 3.5 5.73V18.27C3.5 18.8614 3.73495 19.4286 4.15315 19.8468C4.57136 20.2651 5.13857 20.5 5.73 20.5H18.27C18.8614 20.5 19.4286 20.2651 19.8468 19.8468C20.2651 19.4286 20.5 18.8614 20.5 18.27V5.73C20.5 5.13857 20.2651 4.57136 19.8468 4.15315C19.4286 3.73495 18.8614 3.5 18.27 3.5H5.73ZM2.5 5.73C2.5 4.87335 2.8403 4.05179 3.44605 3.44605C4.05179 2.8403 4.87335 2.5 5.73 2.5H18.27C18.6942 2.5 19.1142 2.58355 19.5061 2.74587C19.8979 2.90819 20.254 3.14611 20.554 3.44605C20.8539 3.74598 21.0918 4.10205 21.2541 4.49393C21.4165 4.88581 21.5 5.30583 21.5 5.73V18.27C21.5 19.1266 21.1597 19.9482 20.554 20.554C19.9482 21.1597 19.1266 21.5 18.27 21.5H5.73C5.30583 21.5 4.88581 21.4165 4.49393 21.2541C4.10205 21.0918 3.74598 20.8539 3.44605 20.554C2.8403 19.9482 2.5 19.1266 2.5 18.27V5.73Z"/>
<path fill-rule="evenodd" clip-rule="evenodd" d="M8.66998 6.37C8.80259 6.37 8.92977 6.42267 9.02354 6.51644C9.1173 6.61021 9.16998 6.73739 9.16998 6.87V18C9.16998 18.1326 9.1173 18.2598 9.02354 18.3535C8.92977 18.4473 8.80259 18.5 8.66998 18.5C8.53737 18.5 8.4102 18.4473 8.31643 18.3535C8.22266 18.2598 8.16998 18.1326 8.16998 18V6.87C8.16998 6.73739 8.22266 6.61021 8.31643 6.51644C8.4102 6.42267 8.53737 6.37 8.66998 6.37Z"/>
<path fill-rule="evenodd" clip-rule="evenodd" d="M6.05001 14.21C6.10356 14.1724 6.1641 14.1459 6.22807 14.1321C6.29204 14.1182 6.35813 14.1173 6.42244 14.1294C6.48676 14.1416 6.54799 14.1664 6.60254 14.2026C6.65708 14.2388 6.70382 14.2855 6.74001 14.34L8.67001 17.13L10.6 14.34C10.6805 14.2479 10.792 14.1884 10.9134 14.1729C11.0347 14.1574 11.1576 14.187 11.2586 14.256C11.3597 14.325 11.4319 14.4287 11.4616 14.5474C11.4914 14.6661 11.4766 14.7915 11.42 14.9L9.08001 18.29C9.03545 18.3581 8.97463 18.4141 8.90305 18.4528C8.83147 18.4915 8.75138 18.5117 8.67001 18.5117C8.58864 18.5117 8.50854 18.4915 8.43696 18.4528C8.36538 18.4141 8.30457 18.3581 8.26001 18.29L5.92001 14.9C5.88238 14.8465 5.85586 14.786 5.84202 14.722C5.82818 14.658 5.82729 14.5919 5.8394 14.5276C5.85152 14.4633 5.8764 14.4021 5.91257 14.3475C5.94874 14.293 5.99548 14.2462 6.05001 14.21V14.21Z"/>
<path fill-rule="evenodd" clip-rule="evenodd" d="M15.33 6.43005C15.4626 6.43005 15.5898 6.48273 15.6836 6.5765C15.7773 6.67027 15.83 6.79745 15.83 6.93005V18.0001C15.83 18.1327 15.7773 18.2598 15.6836 18.3536C15.5898 18.4474 15.4626 18.5001 15.33 18.5001C15.1974 18.5001 15.0702 18.4474 14.9765 18.3536C14.8827 18.2598 14.83 18.1327 14.83 18.0001V6.93005C14.83 6.79745 14.8827 6.67027 14.9765 6.5765C15.0702 6.48273 15.1974 6.43005 15.33 6.43005Z"/>
<path fill-rule="evenodd" clip-rule="evenodd" d="M15.33 6.37C15.4112 6.36981 15.4912 6.38982 15.5628 6.42823C15.6344 6.46663 15.6953 6.52222 15.74 6.59L18.08 10C18.1366 10.1085 18.1514 10.234 18.1217 10.3527C18.0919 10.4714 18.0197 10.575 17.9186 10.644C17.8176 10.7131 17.6947 10.7426 17.5734 10.7271C17.452 10.7116 17.3405 10.6522 17.26 10.56L15.33 7.75L13.4 10.53C13.3195 10.6222 13.208 10.6816 13.0867 10.6971C12.9653 10.7126 12.8424 10.6831 12.7414 10.614C12.6403 10.545 12.5681 10.4414 12.5384 10.3227C12.5086 10.204 12.5234 10.0785 12.58 9.97L14.92 6.59C14.9648 6.52222 15.0257 6.46663 15.0972 6.42823C15.1688 6.38982 15.2488 6.36981 15.33 6.37V6.37Z"/>
</svg>
