<svg width="48" height="48" viewBox="0 0 48 48" fill="none" xmlns="http://www.w3.org/2000/svg">
<g clip-path="url(#clip0)">
<path d="M3.65059 47.3423L0.591077 23.1141C0.44122 21.9275 1.29662 20.957 2.49082 20.957H28.2803L3.65059 47.3423Z" fill="#D7E6FF"/>
<path d="M28.5232 9.81581H25.5791C25.6647 9.4684 25.715 9.10516 25.715 8.72795V4.77793C25.715 2.51186 24.047 0.657471 22.0086 0.657471C19.9701 0.657471 18.3021 2.51186 18.3021 4.77793V8.72888C18.3021 9.10609 18.3524 9.46933 18.438 9.81674H15.494C13.2293 9.81674 12.4726 11.3107 13.8148 13.1371L19.5699 20.9748C20.9112 22.8012 23.1069 22.8012 24.4472 20.9748L30.2032 13.1371C31.5436 11.3107 30.7887 9.81581 28.5232 9.81581Z" fill="#16499C"/>
<path fill-rule="evenodd" clip-rule="evenodd" d="M26.3526 9.15834H28.5232C29.9789 9.15834 30.9107 9.72089 31.3016 10.4939C31.6925 11.267 31.5939 12.3521 30.7329 13.5256L29.6736 12.747C30.1539 12.0922 30.3475 11.5194 30.1288 11.0882C29.911 10.6569 29.3348 10.4735 28.5232 10.4735H25.5791C25.3771 10.4735 25.1854 10.3803 25.0616 10.221C24.9368 10.0618 24.8931 9.85408 24.9415 9.65756C25.015 9.36045 25.0578 9.05029 25.0578 8.72803V4.77802C25.0578 2.89103 23.7063 1.31512 22.0086 1.31512C20.3117 1.31512 18.9593 2.89103 18.9593 4.77802H17.645C17.645 2.13195 19.6285 0 22.0086 0C24.3895 0 26.3721 2.13195 26.3721 4.77802V8.72897C26.3712 8.87426 26.3647 9.01677 26.3526 9.15834Z" fill="#002561"/>
<path fill-rule="evenodd" clip-rule="evenodd" d="M18.4381 9.1582H15.494C14.0391 9.1582 13.1065 9.72076 12.7156 10.4938C12.3246 11.2669 12.4233 12.3519 13.2852 13.5255L19.0403 21.364C19.8529 22.4705 20.9372 23.0024 22.0086 23.0024C23.0809 23.0024 24.1643 22.4715 24.9769 21.364L23.9176 20.5854C23.3899 21.3054 22.7057 21.6872 22.0086 21.6872C21.3123 21.6872 20.6282 21.3054 20.0995 20.5854L14.3435 12.7478C13.8632 12.093 13.6696 11.5202 13.8884 11.089C14.1062 10.6577 14.6823 10.4743 15.494 10.4743H18.4381V9.1582Z" fill="#002561"/>
<path d="M3.65057 47.3424H42.3343L47.26 19.3625H28.4981C27.3029 19.3625 25.7383 20.1458 25.0206 21.1024L21.5432 25.7416H10.7497C9.55459 25.7416 8.35945 26.6954 8.09324 27.8615L3.65057 47.3424Z" fill="white"/>
<path d="M29.3674 44.7329L30.4229 38.7366H41.2164L40.1609 44.7329H29.3674Z" fill="#D7E6FF"/>
<path fill-rule="evenodd" clip-rule="evenodd" d="M4.38682 47.2604L1.32638 23.0322C1.22772 22.2527 1.78899 21.6147 2.57457 21.6147H15.2184C15.5815 21.6147 15.8756 21.3204 15.8756 20.9571C15.8756 20.5939 15.5815 20.2996 15.2184 20.2996H2.5755C0.970819 20.2996 -0.177778 21.6026 0.0232731 23.1971L3.08372 47.4253C3.12839 47.7848 3.45789 48.0409 3.81811 47.9953C4.17647 47.9487 4.4315 47.6199 4.38682 47.2604Z" fill="#49508F"/>
<path fill-rule="evenodd" clip-rule="evenodd" d="M21.627 25.084H10.8335C9.34981 25.084 7.86613 26.2678 7.5357 27.7152L5.47307 36.7636C5.39209 37.1175 5.61455 37.4705 5.96732 37.5506C6.32102 37.6316 6.67379 37.41 6.75384 37.056L8.8174 28.0067C9.01938 27.1219 9.92691 26.3982 10.8335 26.3982H21.627C21.989 26.3982 22.2841 26.1029 22.2841 25.7406C22.2841 25.3783 21.99 25.084 21.627 25.084Z" fill="#49508F"/>
<path fill-rule="evenodd" clip-rule="evenodd" d="M46.561 20.0202H28.5818C28.2188 20.0202 27.9247 19.7259 27.9247 19.3626C27.9247 18.9994 28.2188 18.7051 28.5818 18.7051H47.3438C47.5384 18.7051 47.7227 18.7908 47.8474 18.9398C47.9721 19.0888 48.0252 19.2853 47.9907 19.4763L43.065 47.4551C43.0091 47.769 42.7364 47.9991 42.4171 47.9991H3.73435C3.37134 47.9991 3.07721 47.7038 3.07721 47.3415C3.07721 46.9783 3.37134 46.684 3.73435 46.684H41.8661L46.561 20.0202Z" fill="#49508F"/>
</g>
<defs>
<clipPath id="clip0">
<rect width="48" height="48" fill="white"/>
</clipPath>
</defs>
</svg>
