<svg width="24" height="24" viewBox="0 0 24 24" fill="none" xmlns="http://www.w3.org/2000/svg">
<path d="M10.9 21.8C10.8 21.8 10.7 21.8 10.7 21.8L3.20005 20.2C2.70005 20.1 2.30005 19.6 2.30005 19.1V4.99997C2.30005 4.49997 2.70005 3.99997 3.20005 3.89997L10.7 2.29997C11 2.19997 11.4 2.29997 11.6 2.49997C11.9 2.69997 12 2.99997 12 3.39997V20.8C12 21.1 11.9 21.4 11.6 21.6C11.4 21.7 11.2 21.8 10.9 21.8ZM10.9 3.29997L3.40005 4.89997C3.40005 4.89997 3.30005 4.89997 3.30005 4.99997V19.2C3.30005 19.2 3.30005 19.3 3.40005 19.3L10.9 20.9H11V3.49997L10.9 3.29997Z" />
<path d="M8.60007 12.9C9.09713 12.9 9.50007 12.497 9.50007 12C9.50007 11.5029 9.09713 11.1 8.60007 11.1C8.10302 11.1 7.70007 11.5029 7.70007 12C7.70007 12.497 8.10302 12.9 8.60007 12.9Z" />
<path d="M21.7 11.6L19 8.9C18.8 8.7 18.5 8.7 18.3 8.9C18.1 9.1 18.1 9.4 18.3 9.6L20.1 11.4H14C13.7 11.4 13.5 11.6 13.5 11.9C13.5 12.2 13.7 12.4 14 12.4H20.1L18.3 14.2C18.1 14.4 18.1 14.7 18.3 14.9C18.4 15 18.5 15 18.7 15C18.9 15 19 15 19.1 14.9L21.8 12.2C21.9 12.1 21.9 11.8 21.7 11.6Z" />
<path d="M19 7.90002C18.7 7.90002 18.5 7.70002 18.5 7.40002V5.20002C18.5 5.00002 18.4 4.90002 18.2 4.90002H13.3C13 4.90002 12.8 4.70002 12.8 4.40002C12.8 4.10002 13 3.90002 13.3 3.90002H18.2C18.9 3.90002 19.5 4.50002 19.5 5.20002V7.40002C19.5 7.70002 19.3 7.90002 19 7.90002Z" />
<path d="M18.2 20.1H13.3C13 20.1 12.8 19.9 12.8 19.6C12.8 19.3 13 19.1 13.3 19.1H18.2C18.4 19.1 18.5 19 18.5 18.8V16.6C18.5 16.3 18.7 16.1 19 16.1C19.3 16.1 19.5 16.3 19.5 16.6V18.8C19.5 19.5 18.9 20.1 18.2 20.1Z" />
</svg>
