<svg width="25" height="24" viewBox="0 0 25 24" fill="none" xmlns="http://www.w3.org/2000/svg">
<path fill-rule="evenodd" clip-rule="evenodd" d="M3.38 2.57996H14.7771L18.63 6.43285V9.30996C18.63 9.5861 18.4061 9.80996 18.13 9.80996C17.8539 9.80996 17.63 9.5861 17.63 9.30996V6.84706L14.3629 3.57996H4.38V20.5H10.5C10.7761 20.5 11 20.7238 11 21C11 21.2761 10.7761 21.5 10.5 21.5H3.38V2.57996Z" />
<path fill-rule="evenodd" clip-rule="evenodd" d="M14.7389 11.6321C15.6562 11.2522 16.6656 11.1528 17.6394 11.3465C18.6132 11.5402 19.5076 12.0183 20.2097 12.7203C20.9118 13.4224 21.3899 14.3169 21.5836 15.2906C21.7773 16.2644 21.6778 17.2738 21.2979 18.1911C20.9179 19.1084 20.2745 19.8924 19.449 20.444C18.6234 20.9956 17.6529 21.29 16.66 21.29C15.3286 21.29 14.0518 20.7611 13.1103 19.8197C12.6442 19.3535 12.2744 18.8001 12.0221 18.1911C11.7699 17.582 11.64 16.9292 11.64 16.27C11.64 15.2771 11.9344 14.3066 12.486 13.481C13.0376 12.6555 13.8217 12.0121 14.7389 11.6321ZM17.4443 12.3272C16.6645 12.1721 15.8562 12.2517 15.1216 12.556C14.3871 12.8603 13.7592 13.3755 13.3175 14.0366C12.8758 14.6977 12.64 15.4749 12.64 16.27C12.64 16.7979 12.744 17.3207 12.946 17.8084C13.148 18.2961 13.4442 18.7393 13.8174 19.1126C14.5713 19.8665 15.5938 20.29 16.66 20.29C17.4551 20.29 18.2323 20.0542 18.8934 19.6125C19.5545 19.1708 20.0697 18.5429 20.374 17.8084C20.6783 17.0738 20.7579 16.2655 20.6028 15.4857C20.4477 14.7059 20.0648 13.9896 19.5026 13.4274C18.9404 12.8652 18.2241 12.4824 17.4443 12.3272Z" />
<path fill-rule="evenodd" clip-rule="evenodd" d="M16.66 13.23C16.9361 13.23 17.16 13.4538 17.16 13.73V18.63C17.16 18.9061 16.9361 19.13 16.66 19.13C16.3838 19.13 16.16 18.9061 16.16 18.63V13.73C16.16 13.4538 16.3838 13.23 16.66 13.23Z" />
<path fill-rule="evenodd" clip-rule="evenodd" d="M14.1717 16.1828C14.38 16.0015 14.6958 16.0234 14.8771 16.2317L16.5424 18.1447C16.5572 18.1582 16.5734 18.1701 16.5906 18.1803C16.609 18.1856 16.6279 18.1887 16.647 18.1897C16.6646 18.1886 16.682 18.1856 16.6989 18.1807C16.7163 18.1704 16.7326 18.1583 16.7476 18.1447L18.4129 16.2317C18.5942 16.0234 18.91 16.0015 19.1183 16.1828C19.3266 16.3641 19.3484 16.6799 19.1671 16.8882L17.4753 18.8319L17.4624 18.8446C17.3626 18.9438 17.2474 19.0261 17.1212 19.0884L17.1015 19.0981L17.0811 19.106C16.9473 19.158 16.8056 19.1863 16.6621 19.1898L16.6529 19.19L16.6437 19.1899C16.4955 19.188 16.3488 19.1598 16.2104 19.1066L16.1892 19.0984L16.1688 19.0884C16.0426 19.0261 15.9274 18.9438 15.8276 18.8446L15.8147 18.8319L14.1229 16.8882C13.9416 16.6799 13.9634 16.3641 14.1717 16.1828Z" />
<path d="M7.06002 8.14002L7.59002 7.14002H8.27002L7.44002 8.57002L8.29002 10H7.61002L7.06002 9.00002L6.51002 10H5.83002L6.68002 8.57002L5.85002 7.16002H6.53002L7.06002 8.14002ZM9.17002 9.53002H10.42V10H8.59002V7.16002H9.17002V9.53002ZM11.77 8.14002L12.31 7.14002H13L12.17 8.55002L13 10H12.32L11.77 9.00002L11.23 10H10.54L11.39 8.57002L10.57 7.16002H11.24L11.77 8.14002ZM14.77 9.25002C14.772 9.20272 14.7631 9.15559 14.744 9.11225C14.725 9.06892 14.6962 9.03053 14.66 9.00002C14.5266 8.91637 14.3817 8.85238 14.23 8.81002C14.0649 8.7606 13.9043 8.69703 13.75 8.62002C13.6109 8.55939 13.4919 8.46044 13.4069 8.33472C13.3219 8.209 13.2744 8.06171 13.27 7.91002C13.2671 7.76278 13.3128 7.61869 13.4 7.50002C13.4942 7.37341 13.6226 7.27628 13.77 7.22002C13.9444 7.14868 14.1317 7.11462 14.32 7.12002C14.5061 7.11393 14.6911 7.15161 14.86 7.23002C15.0107 7.29384 15.1388 7.40127 15.2279 7.53849C15.317 7.6757 15.363 7.83644 15.36 8.00002H14.77C14.7734 7.94277 14.7644 7.88545 14.7437 7.83197C14.723 7.77848 14.6911 7.73007 14.65 7.69002C14.5537 7.61355 14.4329 7.57448 14.31 7.58002C14.1882 7.56977 14.0669 7.60544 13.97 7.68002C13.9329 7.70584 13.9027 7.74024 13.8818 7.78029C13.8609 7.82034 13.85 7.86485 13.85 7.91002C13.8514 7.95855 13.8649 8.00595 13.8894 8.04788C13.9139 8.08981 13.9485 8.12493 13.99 8.15002C14.1174 8.22698 14.2556 8.28429 14.4 8.32002C14.6708 8.38499 14.9215 8.51548 15.13 8.70002C15.2049 8.77035 15.2641 8.8557 15.3037 8.95047C15.3434 9.04525 15.3625 9.14732 15.36 9.25002C15.3658 9.36244 15.3432 9.4745 15.2943 9.57587C15.2453 9.67724 15.1717 9.76465 15.08 9.83002C14.8594 9.97941 14.5962 10.0531 14.33 10.04C14.1238 10.0429 13.9193 10.002 13.73 9.92002C13.5638 9.85281 13.4212 9.738 13.32 9.59002C13.2274 9.44717 13.1787 9.28027 13.18 9.11002H13.77C13.77 9.42002 13.95 9.58002 14.33 9.58002C14.4469 9.58657 14.5627 9.55499 14.66 9.49002C14.696 9.46158 14.7248 9.42499 14.7439 9.38327C14.763 9.34154 14.772 9.29588 14.77 9.25002Z" />
</svg>
