<svg width="24" height="24" viewBox="0 0 24 24" fill="none" xmlns="http://www.w3.org/2000/svg">
<path fill-rule="evenodd" clip-rule="evenodd" d="M4.31997 5.60002C4.26163 5.60002 4.20567 5.6232 4.16441 5.66446C4.12315 5.70572 4.09997 5.76168 4.09997 5.82002V19.693C4.09986 19.7161 4.10354 19.739 4.11087 19.7609C4.11854 19.775 4.1279 19.7882 4.13873 19.8001C4.16659 19.8227 4.19739 19.8415 4.2303 19.8559C4.25562 19.8658 4.2826 19.8706 4.30977 19.8701L4.31997 19.8699L9.99997 19.87C10.3313 19.87 10.6 20.1387 10.6 20.47C10.6 20.8014 10.3313 21.07 9.99997 21.07H4.3243C4.13545 21.0724 3.94802 21.0369 3.77314 20.9655L3.76536 20.9623C3.60773 20.8954 3.46189 20.8035 3.33338 20.6903L3.32269 20.6808L3.31245 20.6709C3.18818 20.5505 3.08731 20.4081 3.01495 20.2509L3.00942 20.2389L3.00443 20.2267C2.93476 20.0559 2.89928 19.8731 2.89997 19.6887C2.89998 19.6882 2.89998 19.6876 2.89998 19.687L3.49997 19.69H2.89997V19.6887V5.82002C2.89997 5.44342 3.04958 5.08223 3.31588 4.81593C3.58218 4.54963 3.94337 4.40002 4.31997 4.40002H18.69C19.0666 4.40002 19.4278 4.54963 19.6941 4.81593C19.9604 5.08223 20.11 5.44342 20.11 5.82002V10C20.11 10.3314 19.8413 10.6 19.51 10.6C19.1786 10.6 18.91 10.3314 18.91 10V5.82002C18.91 5.76168 18.8868 5.70572 18.8455 5.66446C18.8043 5.6232 18.7483 5.60002 18.69 5.60002H4.31997Z" />
<path fill-rule="evenodd" clip-rule="evenodd" d="M5.63003 2.75C5.9614 2.75 6.23003 3.01863 6.23003 3.35V6.79C6.23003 7.12137 5.9614 7.39 5.63003 7.39C5.29866 7.39 5.03003 7.12137 5.03003 6.79V3.35C5.03003 3.01863 5.29866 2.75 5.63003 2.75Z" />
<path fill-rule="evenodd" clip-rule="evenodd" d="M9.44998 2.75C9.78135 2.75 10.05 3.01863 10.05 3.35V6.79C10.05 7.12137 9.78135 7.39 9.44998 7.39C9.1186 7.39 8.84998 7.12137 8.84998 6.79V3.35C8.84998 3.01863 9.1186 2.75 9.44998 2.75Z" />
<path fill-rule="evenodd" clip-rule="evenodd" d="M13.27 2.75C13.6014 2.75 13.87 3.01863 13.87 3.35V6.79C13.87 7.12137 13.6014 7.39 13.27 7.39C12.9386 7.39 12.67 7.12137 12.67 6.79V3.35C12.67 3.01863 12.9386 2.75 13.27 2.75Z" />
<path fill-rule="evenodd" clip-rule="evenodd" d="M17.1 2.75C17.4314 2.75 17.7 3.01863 17.7 3.35V6.79C17.7 7.12137 17.4314 7.39 17.1 7.39C16.7686 7.39 16.5 7.12137 16.5 6.79V3.35C16.5 3.01863 16.7686 2.75 17.1 2.75Z" />
<path d="M8.38 12.86H5.88V12.36L7.06 11.1C7.19497 10.959 7.31557 10.8049 7.42 10.64C7.49447 10.5269 7.53601 10.3954 7.54 10.26C7.5446 10.1912 7.53548 10.1222 7.51316 10.057C7.49085 9.99172 7.45578 9.93157 7.41 9.88001C7.36567 9.8322 7.31128 9.79484 7.25075 9.77063C7.19022 9.74642 7.12506 9.73596 7.06 9.74001C6.98659 9.7386 6.91373 9.75306 6.84642 9.7824C6.77912 9.81174 6.71893 9.85527 6.67 9.91001C6.57196 10.0389 6.52241 10.1982 6.53 10.36H5.81C5.81849 10.1435 5.88404 9.93306 6 9.75001C6.10888 9.56298 6.26832 9.41047 6.46 9.31001C6.66442 9.20678 6.89104 9.15528 7.12 9.16001C7.43655 9.13873 7.74985 9.23486 8 9.43001C8.10431 9.52666 8.1868 9.64444 8.24198 9.77549C8.29716 9.90655 8.32376 10.0479 8.32 10.19C8.31738 10.3831 8.26577 10.5723 8.17 10.74C8.04285 10.9821 7.88115 11.2044 7.69 11.4L6.86 12.28H8.38V12.86ZM11.6 10.86H12.51V11.52H11.6V12.52H10.91V11.52H10V10.86H10.91V9.86001H11.6V10.86ZM15.96 12.86H15.23V10.06L14.37 10.33V9.74001L15.88 9.20001H16L15.96 12.86Z" />
<path fill-rule="evenodd" clip-rule="evenodd" d="M17.8252 12.0519L20.2985 14.4947L14.6239 20.2398L12.1523 17.7834L17.8252 12.0519ZM17.8348 13.748L13.8476 17.7765L14.6161 18.5401L18.6015 14.5052L17.8348 13.748Z" />
<path fill-rule="evenodd" clip-rule="evenodd" d="M19.1809 11.41L19.1912 11.4101C19.4213 11.4105 19.6491 11.4566 19.8613 11.5457C20.0699 11.6332 20.2595 11.7606 20.4193 11.9207C20.582 12.0756 20.7126 12.2611 20.8036 12.4666C20.8962 12.6756 20.946 12.9011 20.9499 13.1297L20.9501 13.1412C20.9493 13.5982 20.7685 14.0365 20.4472 14.3614L19.455 15.371L16.984 12.9152L17.9586 11.9228L17.9656 11.9162C18.2913 11.605 18.7204 11.4249 19.1707 11.4104L19.1809 11.41ZM19.5893 12.7874L19.5726 12.7711C19.5224 12.7202 19.4627 12.6798 19.3969 12.6521C19.3341 12.6258 19.2669 12.6116 19.1989 12.6102C19.0504 12.6174 18.9092 12.677 18.8003 12.7784L18.676 12.9049L19.445 13.6692L19.5937 13.5178C19.6922 13.4184 19.7482 13.2846 19.75 13.1447C19.7481 13.0785 19.7333 13.0132 19.7065 12.9526C19.6789 12.8903 19.639 12.8341 19.5893 12.7874Z" />
<path fill-rule="evenodd" clip-rule="evenodd" d="M12.9018 17.5187C13.2118 17.6357 13.3683 17.9818 13.2513 18.2919L12.7304 19.6724L14.119 19.1222C14.427 19.0001 14.7757 19.1509 14.8978 19.459C15.0199 19.7671 14.8691 20.1158 14.561 20.2378L11.911 21.2878C11.6902 21.3753 11.4385 21.3243 11.2692 21.1578C11.0999 20.9912 11.0448 20.7404 11.1286 20.5182L12.1286 17.8682C12.2456 17.5582 12.5918 17.4017 12.9018 17.5187Z" />
</svg>
