<svg width="24" height="24" viewBox="0 0 24 24" fill="none" xmlns="http://www.w3.org/2000/svg">
<path d="M16.78 11.3V9.50999C16.779 9.43074 16.762 9.35252 16.73 9.27999C16.693 9.20995 16.6377 9.15121 16.57 9.10999C16.5054 9.05801 16.4304 9.02051 16.35 8.99999C16.2747 8.9796 16.1953 8.9796 16.12 8.99999L15.12 9.34999C14.5228 8.74759 13.7985 8.28634 13 7.99999C13.5482 7.57912 13.9533 6.99945 14.16 6.33999C14.3083 5.84714 14.3393 5.32642 14.2505 4.81946C14.1617 4.31249 13.9555 3.83333 13.6484 3.42027C13.3414 3.00721 12.942 2.67169 12.4821 2.44053C12.0223 2.20938 11.5147 2.08899 11 2.08899C10.4853 2.08899 9.97778 2.20938 9.51793 2.44053C9.05807 2.67169 8.65865 3.00721 8.3516 3.42027C8.04455 3.83333 7.83837 4.31249 7.74954 4.81946C7.66072 5.32642 7.6917 5.84714 7.84002 6.33999C8.04677 6.99945 8.45184 7.57912 9.00002 7.99999C8.16497 8.29808 7.41146 8.78786 6.80003 9.42999L5.80003 9.07999C5.72465 9.06007 5.6454 9.06007 5.57003 9.07999C5.48969 9.08872 5.41345 9.11991 5.35002 9.16999C5.28236 9.21121 5.22708 9.26995 5.19003 9.33999C5.15808 9.41252 5.14107 9.49074 5.14002 9.56999V11.36C4.7472 11.4184 4.39047 11.6218 4.14002 11.93C3.89436 12.2247 3.75983 12.5963 3.75983 12.98C3.75983 13.3637 3.89436 13.7352 4.14002 14.03C4.39047 14.3382 4.7472 14.5415 5.14002 14.6V16.52C5.1393 16.6205 5.17084 16.7187 5.23003 16.8C5.2851 16.8834 5.36584 16.9466 5.46003 16.98L10.32 18.81L10.75 18.97C10.8633 19.0096 10.9867 19.0096 11.1 18.97L11.43 18.85C11.136 18.2783 10.9883 17.6427 11 17C10.9961 16.3805 11.1437 15.7694 11.43 15.22V11.82L15.73 10.21V11.27C15.5459 11.3068 15.38 11.4056 15.26 11.55C15.1375 11.6917 15.0701 11.8727 15.07 12.06V13.06C15.4099 13.0578 15.7478 13.1118 16.07 13.22V12.22H16.4C16.486 12.2049 16.574 12.2049 16.66 12.22C16.7377 12.2583 16.8086 12.309 16.87 12.37C16.968 12.4724 17.0299 12.604 17.0461 12.7449C17.0624 12.8857 17.0321 13.0279 16.96 13.15C16.9003 13.2515 16.8138 13.3345 16.71 13.39C17.0225 13.541 17.3093 13.7401 17.56 13.98C17.8177 13.7418 17.981 13.4187 18.02 13.07C18.0305 12.987 18.0305 12.903 18.02 12.82C18.0219 12.4563 17.8983 12.1031 17.67 11.82C17.4384 11.5538 17.1257 11.3711 16.78 11.3ZM5.87002 13.59H5.55003C5.37313 13.5874 5.20421 13.516 5.07912 13.3909C4.95403 13.2658 4.88261 13.0969 4.88003 12.92C4.86502 12.8373 4.86502 12.7526 4.88003 12.67C4.91127 12.5909 4.959 12.5193 5.02003 12.46C5.08449 12.4007 5.15898 12.3533 5.24002 12.32C5.31805 12.2832 5.40386 12.2661 5.49002 12.27H5.82003L5.87002 13.59ZM8.69002 5.31999C8.6835 4.85067 8.81949 4.39041 9.08002 3.99999C9.32055 3.62276 9.66897 3.3266 10.08 3.14999C10.5002 2.97436 10.9625 2.92569 11.41 3.00999C11.857 3.10462 12.2669 3.32697 12.59 3.65004C12.913 3.97311 13.1354 4.38301 13.23 4.82999C13.3143 5.27748 13.2657 5.73986 13.09 6.15999C12.9134 6.57104 12.6173 6.91947 12.24 7.15999C11.8985 7.37786 11.5058 7.50211 11.1011 7.52028C10.6965 7.53845 10.2942 7.44989 9.93453 7.26349C9.57491 7.0771 9.27062 6.79941 9.05218 6.45829C8.83375 6.11717 8.70885 5.72461 8.69002 5.31999ZM10.5 17.73L10.11 17.58L6.20002 16.11V14.56C6.38615 14.5222 6.55275 14.4194 6.67003 14.27C6.791 14.1235 6.85807 13.94 6.86003 13.75V12.1C6.8634 11.9108 6.79963 11.7266 6.68002 11.58C6.55852 11.4306 6.38883 11.328 6.20002 11.29V10.23L10.5 11.84V17.73ZM11 11L7.86003 9.79999C8.72837 9.03908 9.84549 8.62283 11 8.62999C12.1528 8.63279 13.2665 9.04778 14.14 9.79999L11 11Z" />
<path d="M18.08 13.17C17.735 12.8788 17.3471 12.6426 16.93 12.47C16.7421 12.3886 16.5482 12.3217 16.35 12.27C15.9613 12.1502 15.5568 12.0895 15.15 12.09H15C14.3479 12.0915 13.7025 12.2206 13.1 12.47C12.4987 12.7218 11.9545 13.0926 11.5 13.56C10.5927 14.4761 10.0795 15.7106 10.07 17C10.05 17.1928 10.05 17.3872 10.07 17.58C10.1109 17.985 10.2085 18.3822 10.36 18.76C10.7443 19.8705 11.5127 20.8072 12.5266 21.4012C13.5406 21.9953 14.7334 22.2076 15.89 22C17.0403 21.7809 18.0772 21.1652 18.82 20.26C19.4109 19.5164 19.7829 18.6228 19.8942 17.6795C20.0054 16.7363 19.8516 15.7807 19.45 14.92C19.1304 14.2412 18.6622 13.6431 18.08 13.17V13.17ZM15 20.93C13.9585 20.9273 12.9604 20.5124 12.224 19.776C11.4875 19.0395 11.0726 18.0415 11.07 17C11.0661 16.3805 11.2137 15.7694 11.5 15.22C11.8283 14.5737 12.329 14.0308 12.9467 13.6513C13.5644 13.2719 14.2751 13.0707 15 13.07H15.14C15.4799 13.0678 15.8178 13.1218 16.14 13.23C16.365 13.2896 16.583 13.3735 16.79 13.48C17.1024 13.631 17.3892 13.8301 17.64 14.07C18.2321 14.6055 18.6504 15.3059 18.8411 16.0811C19.0317 16.8564 18.9861 17.6709 18.71 18.42C18.4184 19.1656 17.9098 19.8066 17.25 20.26C16.5839 20.7033 15.8001 20.9367 15 20.93V20.93Z" />
<path fill-rule="evenodd" clip-rule="evenodd" d="M16.87 15.13C16.9178 15.1749 16.956 15.2291 16.982 15.2893C17.0081 15.3495 17.0215 15.4144 17.0215 15.48C17.0215 15.5456 17.0081 15.6105 16.982 15.6707C16.956 15.7309 16.9178 15.7851 16.87 15.83L13.87 18.83C13.824 18.876 13.7695 18.9125 13.7094 18.9373C13.6494 18.9622 13.585 18.975 13.52 18.975C13.455 18.975 13.3906 18.9622 13.3306 18.9373C13.2705 18.9125 13.216 18.876 13.17 18.83C13.124 18.7841 13.0876 18.7295 13.0627 18.6695C13.0378 18.6094 13.025 18.545 13.025 18.48C13.025 18.415 13.0378 18.3507 13.0627 18.2906C13.0876 18.2306 13.124 18.176 13.17 18.13L16.17 15.13C16.2149 15.0822 16.2691 15.0441 16.3293 15.018C16.3895 14.992 16.4544 14.9785 16.52 14.9785C16.5856 14.9785 16.6505 14.992 16.7107 15.018C16.7709 15.0441 16.8251 15.0822 16.87 15.13Z" />
<path fill-rule="evenodd" clip-rule="evenodd" d="M13.13 15.13C13.1749 15.0822 13.2291 15.0441 13.2893 15.018C13.3495 14.992 13.4144 14.9785 13.48 14.9785C13.5456 14.9785 13.6105 14.992 13.6707 15.018C13.7309 15.0441 13.7851 15.0822 13.83 15.13L16.83 18.13C16.9228 18.2229 16.9749 18.3488 16.9749 18.48C16.9749 18.6113 16.9228 18.7372 16.83 18.83C16.7371 18.9229 16.6112 18.975 16.48 18.975C16.3487 18.975 16.2228 18.9229 16.13 18.83L13.13 15.83C13.0821 15.7851 13.044 15.7309 13.018 15.6707C12.9919 15.6105 12.9785 15.5456 12.9785 15.48C12.9785 15.4144 12.9919 15.3495 13.018 15.2893C13.044 15.2291 13.0821 15.1749 13.13 15.13V15.13Z" />
</svg>
