<svg width="32" height="32" viewBox="0 0 32 32" fill="none" xmlns="http://www.w3.org/2000/svg">
<path d="M23.48 25.65H8.74003C8.44634 25.65 8.15554 25.592 7.88433 25.4793C7.61312 25.3666 7.36684 25.2015 7.15964 24.9933C6.95243 24.7852 6.78838 24.5382 6.6769 24.2665C6.56542 23.9947 6.50872 23.7037 6.51003 23.41V7.86C6.50872 7.22309 6.63287 6.59215 6.87539 6.00322C7.11791 5.41429 7.47405 4.87889 7.92349 4.4276C8.37293 3.97631 8.90685 3.61796 9.49478 3.37301C10.0827 3.12806 10.7131 3.00131 11.35 3H20.86C21.4969 3.00131 22.1274 3.12806 22.7153 3.37301C23.3032 3.61796 23.8371 3.97631 24.2866 4.4276C24.736 4.87889 25.0922 5.41429 25.3347 6.00322C25.5772 6.59215 25.7013 7.22309 25.7 7.86V23.41C25.7027 23.7032 25.6472 23.994 25.5368 24.2657C25.4264 24.5374 25.2633 24.7845 25.0569 24.9927C24.8505 25.201 24.6049 25.3663 24.3342 25.4791C24.0636 25.5919 23.7733 25.65 23.48 25.65Z" fill="white" stroke="#16499C" stroke-width="2" stroke-miterlimit="10"/>
<path d="M25.71 10.35H6.51001V18.34H25.71V10.35Z" fill="#94CAFF" stroke="#16499C" stroke-width="2" stroke-miterlimit="10"/>
<path d="M9.90002 21.99H13.76" stroke="#FFAD5C" stroke-width="2" stroke-miterlimit="10" stroke-linecap="round"/>
<path d="M18.54 21.99H22.41" stroke="#FFAD5C" stroke-width="2" stroke-miterlimit="10" stroke-linecap="round"/>
<path d="M13.37 6.43994H18.85" stroke="#16499C" stroke-width="2" stroke-miterlimit="10" stroke-linecap="round"/>
<path d="M10.09 29.09C9.6134 29.0874 9.15709 28.8969 8.82009 28.5599C8.48309 28.2229 8.2926 27.7666 8.28998 27.29V25.65H11.89V27.29C11.89 27.7674 11.7003 28.2253 11.3628 28.5628C11.0252 28.9004 10.5674 29.09 10.09 29.09V29.09Z" stroke="#16499C" stroke-width="2" stroke-miterlimit="10" stroke-linecap="round"/>
<path d="M22.13 29.09C22.6066 29.0874 23.0629 28.8969 23.3999 28.5599C23.7369 28.2229 23.9274 27.7666 23.93 27.29V25.65H20.34V27.29C20.3387 27.5259 20.384 27.7598 20.4734 27.9781C20.5627 28.1964 20.6944 28.3949 20.8607 28.5622C21.0271 28.7295 21.2248 28.8622 21.4427 28.9528C21.6605 29.0434 21.8941 29.09 22.13 29.09V29.09Z" stroke="#16499C" stroke-width="2" stroke-miterlimit="10" stroke-linecap="round"/>
<path d="M6.51 11.9301H4.35C4.04408 11.93 3.75053 12.0509 3.53327 12.2663C3.31602 12.4817 3.19264 12.7741 3.19 13.0801V18.4301" stroke="#16499C" stroke-width="2" stroke-miterlimit="10" stroke-linecap="round"/>
<path d="M25.78 11.93H27.93C28.0819 11.9287 28.2325 11.9574 28.3732 12.0146C28.5139 12.0718 28.6418 12.1563 28.7497 12.2632C28.8575 12.3702 28.9431 12.4974 29.0015 12.6376C29.06 12.7777 29.09 12.9281 29.09 13.08V18.43" stroke="#16499C" stroke-width="2" stroke-miterlimit="10" stroke-linecap="round"/>
</svg>
