<svg width="24" height="24" viewBox="0 0 24 24" fill="none" xmlns="http://www.w3.org/2000/svg">
<path fill-rule="evenodd" clip-rule="evenodd" d="M8.53 3C6.85614 3 5.5 4.35614 5.5 6.03V17.37C5.5 17.9939 6.00614 18.5 6.63 18.5H17.37C17.9949 18.5 18.4969 17.994 18.49 17.3756L18.49 17.37H18.49V6.03C18.49 4.35614 17.1339 3 15.46 3H8.53ZM4.5 6.03C4.5 3.80386 6.30386 2 8.53 2H15.46C17.6861 2 19.49 3.80386 19.49 6.03V17.3674C19.5015 18.5476 18.5441 19.5 17.37 19.5H6.63C5.45386 19.5 4.5 18.5461 4.5 17.37V6.03Z" />
<path fill-rule="evenodd" clip-rule="evenodd" d="M19 8.02002H5V7.02002H19V8.02002Z" />
<path fill-rule="evenodd" clip-rule="evenodd" d="M19 14.5H5V13.5H19V14.5Z" />
<path fill-rule="evenodd" clip-rule="evenodd" d="M6.96997 16.33C6.96997 16.0538 7.19383 15.83 7.46997 15.83H10.29C10.5661 15.83 10.79 16.0538 10.79 16.33C10.79 16.6061 10.5661 16.83 10.29 16.83H7.46997C7.19383 16.83 6.96997 16.6061 6.96997 16.33Z" />
<path fill-rule="evenodd" clip-rule="evenodd" d="M13.2699 16.33C13.2699 16.0538 13.4938 15.83 13.7699 15.83H16.5899C16.866 15.83 17.0899 16.0538 17.0899 16.33C17.0899 16.6061 16.866 16.83 16.5899 16.83H13.7699C13.4938 16.83 13.2699 16.6061 13.2699 16.33Z" />
<path fill-rule="evenodd" clip-rule="evenodd" d="M9.5 5C9.5 4.72386 9.72386 4.5 10 4.5H14C14.2761 4.5 14.5 4.72386 14.5 5C14.5 5.27614 14.2761 5.5 14 5.5H10C9.72386 5.5 9.5 5.27614 9.5 5Z" />
<path fill-rule="evenodd" clip-rule="evenodd" d="M5.79993 18.5H9.41993V20.2C9.41993 21.1937 8.61855 22.01 7.60993 22.01C6.61378 22.01 5.79993 21.1961 5.79993 20.2V18.5ZM6.79993 19.5V20.2C6.79993 20.6439 7.16607 21.01 7.60993 21.01C8.0613 21.01 8.41993 20.6463 8.41993 20.2V19.5H6.79993Z" />
<path fill-rule="evenodd" clip-rule="evenodd" d="M14.58 18.5H18.2V20.2C18.2 21.1961 17.3861 22.01 16.39 22.01C15.3813 22.01 14.58 21.1937 14.58 20.2V18.5ZM15.58 19.5V20.2C15.58 20.6463 15.9386 21.01 16.39 21.01C16.8338 21.01 17.2 20.6439 17.2 20.2V19.5H15.58Z" />
<path fill-rule="evenodd" clip-rule="evenodd" d="M2.07996 9.84C2.07996 9.10002 2.68767 8.5 3.42996 8.5H4.99996C5.2761 8.5 5.49996 8.72386 5.49996 9C5.49996 9.27614 5.2761 9.5 4.99996 9.5H3.42996C3.23224 9.5 3.07996 9.65998 3.07996 9.84V13.74C3.07996 14.0161 2.8561 14.24 2.57996 14.24C2.30381 14.24 2.07996 14.0161 2.07996 13.74V9.84Z" />
<path fill-rule="evenodd" clip-rule="evenodd" d="M18.5499 9C18.5499 8.72386 18.7738 8.5 19.0499 8.5H20.6199C21.3699 8.5 21.9599 9.10775 21.9599 9.84V13.74C21.9599 14.0161 21.7361 14.24 21.4599 14.24C21.1838 14.24 20.9599 14.0161 20.9599 13.74V9.84C20.9599 9.65225 20.8099 9.5 20.6199 9.5H19.0499C18.7738 9.5 18.5499 9.27614 18.5499 9Z" />
</svg>
