<svg width="24" height="24" viewBox="0 0 24 24" fill="none" xmlns="http://www.w3.org/2000/svg">
<path fill-rule="evenodd" clip-rule="evenodd" d="M12 8.5C10.0661 8.5 8.5 10.0661 8.5 12V20.5H15.5V12C15.5 10.0661 13.9339 8.5 12 8.5ZM7.5 12C7.5 9.51386 9.51386 7.5 12 7.5C14.4861 7.5 16.5 9.51386 16.5 12V21.5H7.5V12Z" />
<path fill-rule="evenodd" clip-rule="evenodd" d="M4 13.5C3.72614 13.5 3.5 13.7261 3.5 14V20.5H7.5V13.5H4ZM2.5 14C2.5 13.1739 3.17386 12.5 4 12.5H8.5V21.5H3.5C2.94386 21.5 2.5 21.0561 2.5 20.5V14Z" />
<path fill-rule="evenodd" clip-rule="evenodd" d="M15.5 12.5H20C20.8261 12.5 21.5 13.1739 21.5 14V20.5C21.5 21.0561 21.0561 21.5 20.5 21.5H15.5V12.5ZM16.5 13.5V20.5H20.5V14C20.5 13.7261 20.2739 13.5 20 13.5H16.5Z" />
<path fill-rule="evenodd" clip-rule="evenodd" d="M11.5 8.00006V5.56006H12.5V8.00006H11.5Z" />
<path fill-rule="evenodd" clip-rule="evenodd" d="M12.6 3C12.5461 3 12.5 3.04614 12.5 3.1V5.06H15.7C15.7649 5.06 15.8 5.01296 15.8 4.97V3.1C15.8 3.04614 15.7539 3 15.7 3H12.6ZM11.5 3.1C11.5 2.49386 11.9939 2 12.6 2H15.7C16.3061 2 16.8 2.49386 16.8 3.1V4.97C16.8 5.58704 16.2951 6.06 15.7 6.06H11.5V3.1Z" />
<path fill-rule="evenodd" clip-rule="evenodd" d="M12 16.5C11.4062 16.5 10.92 16.9861 10.92 17.58V20.5H13.08V17.58C13.08 16.9861 12.5939 16.5 12 16.5ZM9.92004 17.58C9.92004 16.4339 10.8539 15.5 12 15.5C13.1462 15.5 14.08 16.4339 14.08 17.58V21.5H9.92004V17.58Z" />
<path fill-rule="evenodd" clip-rule="evenodd" d="M4.19995 16C4.19995 15.7239 4.42381 15.5 4.69995 15.5H6.24995C6.52609 15.5 6.74995 15.7239 6.74995 16C6.74995 16.2761 6.52609 16.5 6.24995 16.5H4.69995C4.42381 16.5 4.19995 16.2761 4.19995 16Z" />
<path fill-rule="evenodd" clip-rule="evenodd" d="M4.19995 18.37C4.19995 18.0939 4.42381 17.87 4.69995 17.87H6.24995C6.52609 17.87 6.74995 18.0939 6.74995 18.37C6.74995 18.6461 6.52609 18.87 6.24995 18.87H4.69995C4.42381 18.87 4.19995 18.6461 4.19995 18.37Z" />
<path fill-rule="evenodd" clip-rule="evenodd" d="M17.23 16C17.23 15.7239 17.4538 15.5 17.73 15.5H19.27C19.5461 15.5 19.77 15.7239 19.77 16C19.77 16.2761 19.5461 16.5 19.27 16.5H17.73C17.4538 16.5 17.23 16.2761 17.23 16Z" />
<path fill-rule="evenodd" clip-rule="evenodd" d="M17.23 18.37C17.23 18.0939 17.4538 17.87 17.73 17.87H19.27C19.5461 17.87 19.77 18.0939 19.77 18.37C19.77 18.6461 19.5461 18.87 19.27 18.87H17.73C17.4538 18.87 17.23 18.6461 17.23 18.37Z" />
<path fill-rule="evenodd" clip-rule="evenodd" d="M12 10.75C11.3096 10.75 10.75 11.3096 10.75 12C10.75 12.6904 11.3096 13.25 12 13.25C12.6904 13.25 13.25 12.6904 13.25 12C13.25 11.3096 12.6904 10.75 12 10.75ZM9.75 12C9.75 10.7574 10.7574 9.75 12 9.75C13.2426 9.75 14.25 10.7574 14.25 12C14.25 13.2426 13.2426 14.25 12 14.25C10.7574 14.25 9.75 13.2426 9.75 12Z" />
</svg>
