<svg width="24" height="24" viewBox="0 0 24 24" fill="none" xmlns="http://www.w3.org/2000/svg">
<path d="M20.42 15.02C20.42 14.07 19.75 13.28 18.85 13.1V10.98C18.85 10.79 18.76 10.61 18.6 10.5C18.44 10.39 18.24 10.37 18.06 10.43L16.94 10.85C16.2 10.08 15.31 9.50996 14.33 9.14996C15.29 8.43996 15.92 7.28996 15.92 5.99996C15.92 3.83996 14.16 2.07996 12 2.07996C9.83996 2.07996 8.07996 3.84996 8.07996 6.00996C8.07996 7.29996 8.70996 8.43996 9.66996 9.15996C8.68996 9.50996 7.78996 10.09 7.05996 10.86L5.93996 10.44C5.75996 10.37 5.55996 10.4 5.39996 10.51C5.23996 10.62 5.14996 10.8 5.14996 10.99V13.11C4.25996 13.29 3.57996 14.08 3.57996 15.03C3.57996 15.98 4.24996 16.77 5.14996 16.95V19.22C5.14996 19.46 5.29996 19.68 5.52996 19.77L11.8 22.12C11.93 22.17 12.08 22.17 12.21 22.12L18.48 19.77C18.71 19.68 18.86 19.46 18.86 19.22V16.95C19.75 16.75 20.42 15.96 20.42 15.02ZM9.25996 6.00996C9.25996 4.49996 10.49 3.26996 12 3.26996C13.51 3.26996 14.74 4.49996 14.74 6.00996C14.74 7.51996 13.51 8.74996 12 8.74996C10.49 8.74996 9.25996 7.51996 9.25996 6.00996ZM12 9.92996C13.38 9.92996 14.69 10.43 15.72 11.32L12 12.71L8.27996 11.32C9.30996 10.42 10.62 9.92996 12 9.92996ZM4.74996 15.02C4.74996 14.59 5.09996 14.24 5.52996 14.24H5.91996V15.81H5.53996C5.10996 15.8 4.74996 15.45 4.74996 15.02ZM6.31996 16.96C6.76996 16.86 7.09996 16.47 7.09996 16V14.04C7.09996 13.57 6.75996 13.17 6.31996 13.08V11.83L11.41 13.74V20.71L6.31996 18.8V16.96ZM12.59 20.71V13.74L17.68 11.83V13.08C17.23 13.17 16.9 13.57 16.9 14.04V16C16.9 16.47 17.24 16.87 17.68 16.96V18.8L12.59 20.71ZM18.46 15.8H18.07V14.23H18.46C18.89 14.23 19.24 14.58 19.24 15.01C19.24 15.44 18.89 15.8 18.46 15.8Z" />
</svg>
