<svg width="32" height="32" viewBox="0 0 32 32" fill="none" xmlns="http://www.w3.org/2000/svg">
<path d="M14.19 6.76999L4.73999 23.14C4.5578 23.4576 4.46223 23.8175 4.46286 24.1836C4.4635 24.5497 4.5603 24.9093 4.74359 25.2262C4.92688 25.5432 5.19022 25.8065 5.50724 25.9896C5.82427 26.1728 6.18385 26.2695 6.54999 26.27H25.45C25.8161 26.2695 26.1757 26.1728 26.4927 25.9896C26.8098 25.8065 27.0731 25.5432 27.2564 25.2262C27.4397 24.9093 27.5365 24.5497 27.5371 24.1836C27.5377 23.8175 27.4422 23.4576 27.26 23.14L17.81 6.76999C17.6266 6.45226 17.3627 6.18842 17.045 6.00499C16.7273 5.82155 16.3669 5.72498 16 5.72498C15.6331 5.72498 15.2727 5.82155 14.955 6.00499C14.6373 6.18842 14.3734 6.45226 14.19 6.76999V6.76999Z" stroke="#16499C" stroke-width="2" stroke-miterlimit="10"/>
<path d="M16.01 11.49H16C15.1881 11.49 14.53 12.1481 14.53 12.96V16.85C14.53 17.6618 15.1881 18.32 16 18.32H16.01C16.8219 18.32 17.48 17.6618 17.48 16.85V12.96C17.48 12.1481 16.8219 11.49 16.01 11.49Z" fill="#94CAFF" stroke="#16499C" stroke-width="2" stroke-miterlimit="10"/>
<path d="M16 23.57C16.8119 23.57 17.47 22.9119 17.47 22.1C17.47 21.2881 16.8119 20.63 16 20.63C15.1881 20.63 14.53 21.2881 14.53 22.1C14.53 22.9119 15.1881 23.57 16 23.57Z" fill="#94CAFF" stroke="#16499C" stroke-width="2" stroke-miterlimit="10"/>
</svg>
