<svg width="24" height="24" viewBox="0 0 24 24" fill="none" xmlns="http://www.w3.org/2000/svg">
<path d="M12 3C16.96 3 21 7.04 21 12C21 16.96 16.96 21 12 21C7.04 21 3 16.96 3 12C3 7.04 7.04 3 12 3ZM12 2C6.48 2 2 6.48 2 12C2 17.52 6.48 22 12 22C17.52 22 22 17.52 22 12C22 6.48 17.52 2 12 2Z" />
<path d="M12 5.5C15.58 5.5 18.5 8.42 18.5 12C18.5 15.58 15.58 18.5 12 18.5C8.42 18.5 5.5 15.58 5.5 12C5.5 8.42 8.42 5.5 12 5.5ZM12 4.5C7.86 4.5 4.5 7.86 4.5 12C4.5 16.14 7.86 19.5 12 19.5C16.14 19.5 19.5 16.14 19.5 12C19.5 7.86 16.14 4.5 12 4.5Z" />
<path fill-rule="evenodd" clip-rule="evenodd" d="M11.9999 9.88C9.7104 9.88 7.74435 10.4387 5.60968 11.0601L5.3302 10.0999C7.45553 9.48129 9.54948 8.88 11.9999 8.88C14.0248 8.88 15.2836 9.02681 16.3112 9.2585C16.947 9.40187 17.5104 9.58404 18.0918 9.77201C18.4201 9.87814 18.754 9.98613 19.11 10.09L18.8299 11.05C18.4099 10.9274 18.0531 10.8116 17.7189 10.703C17.1748 10.5264 16.6906 10.3692 16.0912 10.234C15.1563 10.0232 13.9751 9.88 11.9999 9.88Z" />
<path fill-rule="evenodd" clip-rule="evenodd" d="M13.1 17.73C13.1 15.0906 15.1279 12.91 17.68 12.91C17.997 12.91 18.2891 12.9442 18.5744 12.999L18.3856 13.981C18.1509 13.9359 17.9229 13.91 17.68 13.91C15.7321 13.91 14.1 15.5895 14.1 17.73C14.1 17.9955 14.1264 18.2458 14.1722 18.5021L13.1878 18.6779C13.1335 18.3743 13.1 18.0645 13.1 17.73Z" />
<path fill-rule="evenodd" clip-rule="evenodd" d="M6.31996 13.91C6.07703 13.91 5.84904 13.9359 5.61438 13.981L5.42554 12.999C5.71088 12.9442 6.00289 12.91 6.31996 12.91C8.87209 12.91 10.9 15.0906 10.9 17.73C10.9 18.0645 10.8664 18.3743 10.8122 18.6779L9.82775 18.5021C9.87353 18.2458 9.89996 17.9955 9.89996 17.73C9.89996 15.5895 8.26784 13.91 6.31996 13.91Z" />
<path fill-rule="evenodd" clip-rule="evenodd" d="M5.81391 11.0006C5.74612 11.0203 5.67806 11.0402 5.60968 11.0601L5.3302 10.0999C5.40871 10.0771 5.48701 10.0542 5.56513 10.0315C7.59891 9.43841 9.51385 8.88 11.9999 8.88C14.9463 8.88 17.0148 9.4785 19.11 10.09L18.8299 11.05C16.7451 10.4415 14.7936 9.88 11.9999 9.88C9.65889 9.88 7.86518 10.4028 5.81391 11.0006Z" />
<path d="M12.02 13.4099C12.5281 13.4099 12.94 12.998 12.94 12.4899C12.94 11.9818 12.5281 11.5699 12.02 11.5699C11.5119 11.5699 11.1 11.9818 11.1 12.4899C11.1 12.998 11.5119 13.4099 12.02 13.4099Z" />
</svg>
